<svg width="20" height="20" viewBox="0 0 20 20" fill="none" xmlns="http://www.w3.org/2000/svg">
<g clip-path="url(#clip0)">
<path fill-rule="evenodd" clip-rule="evenodd" d="M12.4922 3.99219H17.9922V15.9922H12.4922V17.9922H1.99219V1.99219H12.4922V3.99219ZM12.1922 2.29219H2.29219V17.6922H12.1922V15.9922H8.99219V14.2922H5.19219V9.99219H8.99219V3.99219H12.1922V2.29219ZM17.6922 4.29219H9.29219V9.99219H11.4922V14.2922H9.29219V15.6922H17.6922V4.29219ZM5.49219 10.2922V13.9922H11.1922V10.2922C9.29219 10.2922 7.39219 10.2922 5.49219 10.2922ZM9.29219 12.2922H7.39219V11.9922H9.29219V12.2922ZM11.8922 5.29219H9.99219V4.99219H11.8922V5.29219ZM4.89219 3.29219H2.99219V2.99219H4.89219V3.29219Z" fill="#00ADDF"/>
</g>
<defs>
<clipPath id="clip0">
<rect width="20" height="20" fill="white"/>
</clipPath>
</defs>
</svg>
