<svg width="718" height="362" viewBox="0 0 718 362" fill="none" xmlns="http://www.w3.org/2000/svg">
<path d="M42.0684 75.1523V137.573C45.8348 138.133 49.6661 138.102 53.4228 137.48V86.4678H76.8143C76.7523 82.9433 76.6592 79.1715 76.5351 75.1523H42.0684Z" fill="#240E2B"/>
<path d="M112.242 111.262V62.908H112.025L100.888 52.0254V99.9461C101.561 107.817 100.751 115.745 98.4989 123.319C96.3066 130.76 92.046 138.025 85.7173 145.115C79.3886 152.206 72.4497 156.554 64.9008 158.162C57.3311 159.801 12.5957 159.739 12.5957 159.739L23.9192 171.054C23.9192 171.054 68.6856 171.116 76.2552 169.478C83.8249 167.839 90.8051 163.48 97.0718 156.431C103.338 149.382 107.651 142.055 109.853 134.635C112.088 127.057 112.898 119.133 112.242 111.262V111.262Z" fill="#240E2B"/>
<path d="M100.887 99.9472V51.5936H100.701L89.5329 40.7109L88.354 51.5318H15.1703L13.5261 61.7961L0 64.2694L11.1683 74.9356L11.3545 75.1521H19.0172V119.857L7.66272 121.589L19.1103 132.595V132.533L27.9519 136.923L12.7815 137.109L12.7195 146.971L1.27196 148.795L12.5954 159.74C12.5954 159.74 57.3308 159.802 64.9005 158.163C72.4701 156.525 79.4503 152.165 85.717 145.116C91.9837 138.067 96.2959 130.771 98.4986 123.32C100.75 115.746 101.56 107.818 100.887 99.9472V99.9472ZM74.7038 120.476C72.7596 125.814 68.8508 130.297 62.977 133.925C57.1137 137.48 50.1645 138.686 42.0674 137.573V75.1521H76.5341C77.2787 99.9472 76.6686 115.055 74.7038 120.476Z" fill="#6E0E37"/>
<path d="M30.7129 64.2692L42.0674 75.1519H65.4899L65.2107 64.2383L30.7129 64.2692Z" fill="#6A0533"/>
<path d="M3.81584 40.6504H74.2074L89.5328 40.7122V89.0658C90.204 96.9473 89.3938 104.884 87.144 112.47C84.9724 119.89 80.6912 127.155 74.3625 134.235C68.0338 141.315 61.1466 145.643 53.546 147.282C45.9453 148.92 28.5723 149.446 1.27196 148.797L1.42708 126.228L16.5974 126.073L7.66272 121.59V64.2707H0L3.81584 40.6504ZM30.7129 64.2707V126.691C38.8203 127.804 45.7902 126.588 51.6225 123.043C57.4549 119.498 61.3638 115.015 63.3493 109.594C65.3348 104.194 65.9552 89.0864 65.2107 64.2707H30.7129Z" fill="#FE2F8A"/>
<path d="M201.277 143.818L189.954 132.503L193.366 144.746L154.37 149.229V121.156H187.875L190.45 99.2983L179.096 87.9828L177.762 99.2674L154.37 99.2056V86.5607L199.943 86.4988V63.837L188.589 52.5215V63.837H121.02V75.6162L109.666 75.6471L120.431 80.2537L121.02 80.0682V86.9626L142.364 86.9008L131.786 91.5692L131.879 100.813L124.061 100.875L122.882 111.541H120.338L120.369 109.995H110.473L120.307 121.156L120.338 117.879H122.199L121.796 121.311H131.692V152.66L122.292 154.237L113.482 166.944L124.836 178.259L208.009 167.84L201.277 143.818Z" fill="#240E2B"/>
<path d="M189.955 132.502L178.6 121.217L182.013 133.429L143.017 137.912V109.84H176.522L179.097 87.9819L167.742 76.6664L166.439 87.951L143.017 87.8892V75.2443L188.59 75.1824V52.5206L177.235 41.2051V52.5206H109.667V64.2998L98.3125 64.3307L109.078 68.9682L109.667 68.7518V75.6462L131.011 75.5844L120.432 80.2528L120.525 89.4968L112.707 89.5587L111.528 100.225H109.015V98.71H99.1191L108.984 109.84V106.563H110.846L110.474 109.995H120.37V141.344L110.939 142.921L102.159 155.627L113.483 166.943L196.656 156.524L189.955 132.502Z" fill="#6E0E37"/>
<path d="M98.3125 41.2051H177.235V63.867L131.662 63.9597V76.6046L167.742 76.6664L165.198 98.5554H131.662V126.628L178.6 121.217L185.301 145.209L102.159 155.627L99.5845 131.636L109.015 130.029V98.71H99.1191L101.353 78.2741L109.171 78.1814L109.078 68.9682L121.921 64.2689L98.3125 64.3307V41.2051Z" fill="#FE2F8A"/>
<path d="M177.234 41.2051V63.867L188.589 75.1824V52.5206L177.234 41.2051Z" fill="#6A0533"/>
<path d="M167.743 76.668L179.098 87.9835L176.523 109.842L165.199 98.5569L167.743 76.668Z" fill="#6A0533"/>
<path d="M178.602 121.219L185.303 145.21L196.657 156.526L189.956 132.503L178.602 121.219Z" fill="#6A0533"/>
<path d="M131.662 98.5566L143.017 109.841V125.3L131.662 126.629V98.5566Z" fill="#6A0533"/>
<path d="M290.034 134.637L239.839 85.6648H256.281C259.321 85.4175 261.896 85.4793 263.944 85.8503L270.397 92.0336L291.306 87.8908C291.306 83.6861 290.345 78.8322 288.421 73.2672C287.719 71.0816 286.543 69.0763 284.978 67.3931V67.3931L284.853 67.3003C284.597 67.0094 284.317 66.7405 284.016 66.4965L272.32 55.3047L274.864 62.5083L216.758 62.601L214.4 74.7822H200.967L212.29 85.6648H226.995L215.486 94.7234L262.176 140.202C266.488 144.128 267.015 146.478 263.789 147.22L242.476 147.127C238.164 147.343 235.713 144.437 235.123 138.378L223.769 127.495L201.897 134.915L211.111 154.918L221.566 164.842C222.53 165.944 223.601 166.948 224.762 167.841V167.841C226.539 169.186 228.532 170.221 230.656 170.902L270.955 170.995C281.875 170.026 288.711 165.945 291.461 158.752C294.222 147.436 293.757 139.429 290.034 134.637Z" fill="#240E2B"/>
<path d="M278.681 123.321L228.485 74.3487H244.928C247.999 74.1014 250.543 74.1632 252.621 74.5342L259.043 80.7176L279.953 76.5747C279.953 72.401 278.991 67.5162 277.099 61.9512C276.385 59.7636 275.199 57.7585 273.624 56.077V56.077L273.531 55.9843L272.693 55.1804L260.998 44.0195L263.51 51.1922L205.435 51.2849L203.077 63.4661H189.613L200.968 74.3487H215.642L204.163 83.4073L250.822 128.917C255.134 132.812 255.662 135.162 252.435 135.904L231.122 135.811C226.81 136.027 224.359 133.121 223.77 127.062L212.415 116.21L190.575 123.599L199.758 143.633L210.244 153.526C211.181 154.642 212.243 155.648 213.408 156.525V156.525C215.189 157.864 217.181 158.898 219.302 159.586L259.602 159.679C270.522 158.73 277.357 154.649 280.108 147.436C282.859 136.161 282.383 128.123 278.681 123.321Z" fill="#6E0E37"/>
<path d="M194.081 40.4017L253.273 40.3398C259.726 41.9269 263.883 45.5029 265.744 51.0679C267.637 56.6329 268.598 61.5177 268.598 65.6915L247.689 69.8343C247.689 64.8567 243.004 62.7235 233.573 63.4655H217.131L267.326 112.468C271.049 117.229 271.546 125.268 268.753 136.552C266.003 143.746 259.167 147.827 248.247 148.795L207.948 148.734C203.274 147.188 199.582 144.24 196.873 139.891C194.143 135.501 192.064 130.06 190.575 123.598L212.415 116.209C213.005 122.238 215.456 125.144 219.768 124.959L241.081 125.02C244.338 124.278 243.78 121.96 239.468 118.033L192.809 72.5241L204.287 63.4655H189.613L194.081 40.4017Z" fill="#FE2F8A"/>
<path d="M247.689 69.8342L259.044 80.7169L279.954 76.5741L268.599 65.6914L247.689 69.8342Z" fill="#6A0533"/>
<path d="M328.659 62.6319L317.304 51.3164L304.461 66.2801L293.199 159.957L304.554 171.273H328.566L328.659 62.6319Z" fill="#240E2B"/>
<path d="M317.305 51.3155L305.951 40L293.138 54.9636L281.846 148.641L293.2 159.956H317.212L317.305 51.3155Z" fill="#6E0E37"/>
<path d="M305.95 40L305.888 148.641H281.845L281.783 43.6791L305.95 40Z" fill="#FE2F8A"/>
<path d="M281.846 148.641L293.2 159.956H317.212L305.889 148.641H281.846Z" fill="#6A0533"/>
<path d="M421.451 95.0627L378.763 94.97V117.57L390.117 128.886L409.259 128.793L409.321 141.994L389.714 147.374L369.115 142.736C368.696 141.26 368.56 139.718 368.711 138.191V87.6737H426.104L430.075 63.837L418.721 52.5215L375.195 63.837H346.064L343.241 72.1226L326.551 76.4509L340.325 80.6865L337.905 87.7664L355.402 87.6737L344.761 94.6917V139.304L339.829 153.279L351.462 164.594L352.517 165.614C355.868 168.624 360.521 170.561 366.478 171.427L398.897 171.334L409.569 182L432.712 177.548L432.805 171.334V106.378L421.451 95.0627Z" fill="#240E2B"/>
<path d="M410.095 83.7463L367.408 83.6845V106.254L378.762 117.569L397.903 117.476L397.965 130.709L378.359 136.057L357.759 131.42C357.341 129.943 357.204 128.402 357.356 126.875V76.3573H414.749L418.72 52.5206L407.396 41.2051L363.84 52.5206H334.709L331.886 60.8062L315.227 65.1345L328.97 69.3701L326.55 76.45L344.078 76.3573L333.437 83.3753V128.019L328.473 141.962L340.138 153.278C340.456 153.641 340.798 153.982 341.162 154.298C344.512 157.287 349.166 159.224 355.122 160.11L387.542 160.049L398.213 170.684L421.357 166.232L421.45 160.018V95.0618L410.095 83.7463Z" fill="#6E0E37"/>
<path d="M346.002 65.0742L357.356 76.3588L357.76 131.421L338.805 126.258L346.002 65.0742Z" fill="#6A0533"/>
<path d="M323.355 41.2051H407.396L403.394 65.0727H346.002V115.56C345.443 122.763 349.445 125.886 358.07 124.865H386.642L386.549 106.161L367.408 106.254V83.6845L410.095 83.7463V148.733L410.002 154.916L386.859 159.368V140.447L378.017 148.733L343.768 148.795C336.074 147.682 330.521 144.776 327.17 140.046C323.82 135.315 322.114 128.452 322.083 119.548V72.0599L336.136 65.0727L315.227 65.1345L323.355 41.2051Z" fill="#FE2F8A"/>
<path d="M407.396 41.2051L403.395 65.0727L414.749 76.3573L418.72 52.5206L407.396 41.2051Z" fill="#6A0533"/>
<path d="M410.095 83.7461L421.45 95.0616L421.357 166.232L410.002 154.916L410.095 83.7461Z" fill="#6A0533"/>
<path d="M378.018 148.733L386.859 140.447V159.368L378.018 148.733Z" fill="#6A0533"/>
<path d="M529.349 152.815V63.5892L517.994 52.2737L506.454 102.699L505.337 99.5452C500.125 91.9191 495.068 86.4263 490.166 83.0667C485.327 79.6658 477.819 76.636 467.675 73.9154L464.945 80.5933L465.038 63.4346L453.683 52.1191L442.856 160.42H430.385L441.739 171.736H464.945V96.67C472.597 98.7929 480.663 103.379 489.143 110.428C497.622 117.477 502.669 123.093 504.282 127.277C505.957 131.482 506.733 135.378 506.702 138.964C507.539 145.395 505.306 148.795 500.001 149.228V151.207L496.557 149.197L488.646 160.42L500.001 171.736C512.131 172.385 520.135 170.406 524.013 165.861C527.89 161.317 529.721 156.896 529.349 152.815Z" fill="#240E2B"/>
<path d="M517.995 141.5V52.2748L506.641 40.9593L495.1 91.4152L493.983 88.2308C488.771 80.5841 483.715 75.0912 478.813 71.7522C473.973 68.3514 466.466 65.3216 456.321 62.6009L453.591 69.2789L453.684 52.1202L442.33 40.8047L431.503 149.106H419.031L430.386 160.421H453.591V85.3555C461.243 87.4991 469.309 92.0851 477.789 99.1134C486.269 106.142 491.326 111.758 492.96 115.963C494.604 120.168 495.41 124.063 495.348 127.68C496.186 134.08 493.952 137.512 488.647 137.914V139.892L485.204 137.883L477.293 149.106L488.647 160.421C500.777 161.07 508.781 159.092 512.659 154.547C516.537 150.002 518.368 145.581 517.995 141.5Z" fill="#6E0E37"/>
<path d="M419.186 40.8047H442.33L442.268 57.9943L444.967 51.3163C455.142 54.0061 462.619 57.0668 467.458 60.4367C472.298 63.8066 477.417 69.2789 482.629 76.9153L483.746 80.0997L483.683 40.9593H506.641V130.185C507.013 134.266 505.234 138.615 501.305 143.231C497.375 147.848 489.371 149.806 477.293 149.106V126.629C482.587 126.196 484.821 122.775 483.994 116.365C484.056 112.748 483.249 108.852 481.605 104.678C479.961 100.505 474.935 94.816 466.435 87.7979C457.934 80.7799 449.93 76.1733 442.268 74.04V149.106H419.031L419.186 40.8047Z" fill="#FE2F8A"/>
<path d="M453.589 85.3546L442.266 74.0391V149.105L453.589 160.42V85.3546Z" fill="#6A0533"/>
<path d="M618.974 143.818L607.62 132.503L611.032 144.746L572.036 149.229V121.156H605.572L608.116 99.2983L596.762 87.9828L595.459 99.2674L572.036 99.2056V86.5607L617.609 86.4988V63.837L606.255 52.5215V63.837H538.686V75.6162L527.332 75.6471L538.128 80.2537L538.686 80.0682V86.9626L560.03 86.9008L549.451 91.5692L549.545 100.813L541.727 100.875L540.548 111.541H538.035V109.995H528.139L538.004 121.156V117.879H539.865L539.493 121.311H549.389V152.66L539.958 154.237L531.179 166.944L542.533 178.259L625.675 167.84L618.974 143.818Z" fill="#240E2B"/>
<path d="M607.621 132.502L596.266 121.217L599.679 133.429L560.683 137.912V109.84H594.219L596.763 87.9819L585.408 76.6664L584.105 87.951L560.683 87.8892V75.2443L606.256 75.1824V52.5206L594.901 41.2051V52.5206H527.333V64.2998L515.979 64.3307L526.775 68.9682L527.333 68.7518V75.6462L548.708 75.5844L538.129 80.2528L538.191 89.4968L530.373 89.5587L529.194 100.225H526.682V98.71H516.785L526.65 109.84V106.563H528.512L528.14 109.995H538.036V141.344L528.605 142.921L519.825 155.627L531.18 166.943L614.322 156.524L607.621 132.502Z" fill="#6E0E37"/>
<path d="M515.979 41.2051H594.901V63.867L549.359 63.9597V76.6046L585.408 76.6664L582.865 98.5554H549.359V126.628L596.267 121.217L602.967 145.209L519.825 155.627L517.281 131.636L526.682 130.029V98.71H516.785L519.019 78.2741L526.837 78.1814L526.775 68.9682L539.618 64.2689L515.979 64.3307V41.2051Z" fill="#FE2F8A"/>
<path d="M594.9 41.2051V63.867L606.255 75.1824V52.5206L594.9 41.2051Z" fill="#6A0533"/>
<path d="M585.407 76.668L596.762 87.9835L594.218 109.842L582.863 98.5569L585.407 76.668Z" fill="#6A0533"/>
<path d="M596.266 121.219L602.967 145.21L614.321 156.526L607.62 132.503L596.266 121.219Z" fill="#6A0533"/>
<path d="M549.357 98.5566L560.681 109.841V125.3L549.357 126.629V98.5566Z" fill="#6A0533"/>
<path d="M706.646 139.366L703.45 144.282C701.403 142.452 699.618 140.351 698.145 138.037L691.817 127.989C699.324 124.712 704.536 121.826 707.452 119.332C710.4 116.797 712.633 111.82 714.184 104.461L714.339 72.4937C713.409 69.6802 712.137 67.4852 710.462 65.9393L699.728 55.2422L695.384 62.9404L695.757 63.1878H635.572L619.191 75.5853L630.546 86.9008L647.764 86.808L636.844 92.8368L636.689 126.319L628.064 131.73L636.844 150.434L625.489 160.266L636.844 171.581L659.18 171.427L659.273 143.045L671.807 137.14L676.832 146.694C686.139 162.358 694.971 171.056 703.326 172.787L716.17 175.168L718 150.682L706.646 139.366ZM683.13 108.11L659.273 117.508V86.9008H691.817V97.8762C691.817 102.576 688.932 106.007 683.13 108.11Z" fill="#240E2B"/>
<path d="M695.29 128.051L692.095 132.966C690.048 131.137 688.263 129.035 686.79 126.721L680.492 116.704C687.969 113.396 693.181 110.521 696.128 108.017C699.075 105.512 701.278 100.535 702.829 93.1457L702.984 61.1779C702.084 58.3645 700.781 56.1694 699.106 54.6236L688.403 43.9883L684.029 51.6865L684.401 51.9029H624.216L607.836 64.3005L619.19 75.616L636.439 75.5232L625.488 81.552L625.333 115.035L616.709 120.414L625.488 139.119L614.134 148.95L625.488 160.266L647.825 160.111L647.918 131.73L660.451 125.825L665.477 135.378C674.784 151.083 683.615 159.781 691.971 161.471L704.814 163.852L706.645 139.366L695.29 128.051ZM671.775 96.7939L647.918 106.193V75.5851H680.492V86.5605C680.492 91.2598 677.576 94.6915 671.775 96.7939Z" fill="#6E0E37"/>
<path d="M636.564 94.877V64.2695L647.919 75.585V106.192L636.564 94.877Z" fill="#6A0533"/>
<path d="M669.139 105.389L680.493 116.704L690.266 132.564L667.805 116.395L669.139 105.389Z" fill="#6A0533"/>
<path d="M612.861 40.5566H681.671C686.51 41.1441 689.83 44.2666 691.629 49.8625L691.474 81.8303C689.923 89.2091 687.689 94.166 684.773 96.7012C681.857 99.2054 676.645 102.081 669.137 105.389L675.435 115.406C680.109 122.743 686.727 126.958 695.29 128.051L693.459 152.537L680.616 150.156C672.281 148.466 663.45 139.768 654.122 124.062L649.096 114.54L636.563 120.414L636.501 148.796L614.133 148.95V127.803L605.354 109.13L613.978 103.719L614.133 70.2366L625.084 64.1769L607.835 64.2697L612.861 40.5566ZM636.563 64.2697V94.8771L660.42 85.5094C666.231 83.3659 669.137 79.9444 669.137 75.2451V64.2697H636.563ZM612.861 40.5566H681.671C686.51 41.1441 689.83 44.2666 691.629 49.8625L691.474 81.8303C689.923 89.2091 687.689 94.166 684.773 96.7012C681.857 99.2054 676.645 102.081 669.137 105.389L675.435 115.406C680.109 122.743 686.727 126.958 695.29 128.051L693.459 152.537L680.616 150.156C672.281 148.466 663.45 139.768 654.122 124.062L649.096 114.54L636.563 120.414L636.501 148.796L614.133 148.95V127.803L605.354 109.13L613.978 103.719L614.133 70.2366L625.084 64.1769L607.835 64.2697L612.861 40.5566ZM636.563 64.2697V94.8771L660.42 85.5094C666.231 83.3659 669.137 79.9444 669.137 75.2451V64.2697H636.563Z" fill="#FE2F8A"/>
<path d="M636.502 148.795L647.825 160.111L647.919 131.73L636.564 120.414L636.502 148.795Z" fill="#6A0533"/>
<path d="M695.291 128.051L706.646 139.366L704.815 163.852L693.461 152.537L695.291 128.051Z" fill="#6A0533"/>
<rect x="156.611" y="247.758" width="57.5" height="49.2424" fill="#FFD190"/>
<path d="M29.9251 282.673C30.538 283.464 31.2053 284.023 31.9271 284.35C32.6624 284.664 33.4591 284.821 34.3171 284.821C36.0466 284.821 37.3948 284.194 38.3618 282.939C39.3287 281.684 39.8121 279.741 39.8121 277.109C39.8121 274.709 39.3899 272.957 38.5456 271.853C37.7149 270.748 36.5233 270.196 34.9708 270.196C33.8949 270.196 32.9552 270.441 32.1518 270.932C31.3619 271.409 30.6197 272.098 29.9251 272.998V282.673ZM29.9251 269.807C30.7831 268.866 31.7432 268.116 32.8054 267.557C33.8677 266.998 35.0797 266.719 36.4416 266.719C37.6536 266.719 38.7431 266.957 39.71 267.434C40.6905 267.898 41.5212 268.573 42.2021 269.459C42.8831 270.346 43.4074 271.423 43.7751 272.691C44.1428 273.946 44.3266 275.364 44.3266 276.946C44.3266 278.637 44.1155 280.178 43.6934 281.569C43.2848 282.946 42.6924 284.132 41.9162 285.128C41.1399 286.109 40.2002 286.873 39.0971 287.419C37.9941 287.95 36.7616 288.216 35.3997 288.216C34.7324 288.216 34.1264 288.148 33.5817 288.012C33.037 287.889 32.5331 287.705 32.07 287.459C31.607 287.214 31.178 286.921 30.7831 286.58C30.4018 286.239 30.0341 285.85 29.68 285.414L29.4962 287.03C29.4281 287.344 29.3055 287.569 29.1285 287.705C28.9514 287.841 28.7063 287.909 28.3931 287.909H25.5332V257.637H29.9251V269.807Z" fill="#F6F6FF"/>
<path d="M66.5225 267.046L55.0422 293.841C54.8924 294.155 54.7085 294.4 54.4906 294.578C54.2864 294.755 53.9663 294.844 53.5305 294.844H50.2826L54.123 286.498L45.6251 267.046H49.445C49.8127 267.046 50.0919 267.134 50.2826 267.312C50.4868 267.475 50.6366 267.673 50.732 267.905L55.6959 279.748C55.8184 280.089 55.9274 280.43 56.0227 280.771C56.1317 281.098 56.2338 281.439 56.3291 281.794C56.4381 281.439 56.547 281.091 56.656 280.75C56.7649 280.409 56.8875 280.069 57.0237 279.728L61.7833 267.905C61.8786 267.659 62.0353 267.455 62.2531 267.291C62.4847 267.128 62.7366 267.046 63.009 267.046H66.5225Z" fill="#F6F6FF"/>
<path d="M81.4222 270.83C81.3133 271.021 81.1907 271.157 81.0545 271.239C80.9184 271.321 80.7481 271.362 80.5439 271.362C80.3123 271.362 80.0604 271.294 79.788 271.157C79.5157 271.007 79.1956 270.844 78.8279 270.666C78.4602 270.489 78.0245 270.332 77.5206 270.196C77.0303 270.046 76.4515 269.971 75.7842 269.971C75.2395 269.971 74.7424 270.039 74.293 270.175C73.8572 270.298 73.4827 270.482 73.1695 270.728C72.8699 270.959 72.6384 271.239 72.4749 271.566C72.3115 271.88 72.2298 272.221 72.2298 272.589C72.2298 273.08 72.3796 273.489 72.6792 273.816C72.9788 274.144 73.3738 274.43 73.864 274.675C74.3543 274.907 74.9126 275.119 75.5391 275.309C76.1655 275.5 76.8056 275.705 77.4593 275.923C78.113 276.141 78.753 276.394 79.3795 276.68C80.0059 276.966 80.5643 277.321 81.0545 277.744C81.5448 278.153 81.9397 278.657 82.2394 279.257C82.539 279.844 82.6888 280.559 82.6888 281.405C82.6888 282.387 82.5117 283.294 82.1576 284.125C81.8036 284.957 81.2861 285.68 80.6051 286.294C79.9242 286.907 79.0731 287.384 78.0517 287.725C77.0439 288.066 75.8864 288.237 74.579 288.237C73.8572 288.237 73.1559 288.169 72.4749 288.032C71.8076 287.909 71.1676 287.739 70.5547 287.521C69.9555 287.289 69.3904 287.016 68.8593 286.703C68.3418 286.389 67.8787 286.048 67.4702 285.68L68.4916 284.003C68.6141 283.798 68.7639 283.641 68.941 283.532C69.1316 283.409 69.3631 283.348 69.6355 283.348C69.9215 283.348 70.2007 283.444 70.473 283.634C70.759 283.812 71.0859 284.009 71.4536 284.228C71.8349 284.446 72.2911 284.65 72.8222 284.841C73.3533 285.019 74.0138 285.107 74.8037 285.107C75.4574 285.107 76.0225 285.032 76.4992 284.882C76.9758 284.719 77.3708 284.5 77.684 284.228C77.9972 283.955 78.2287 283.648 78.3785 283.307C78.5283 282.953 78.6032 282.578 78.6032 282.182C78.6032 281.65 78.4534 281.214 78.1538 280.873C77.8542 280.532 77.4525 280.239 76.9486 279.994C76.4583 279.748 75.8932 279.53 75.2531 279.339C74.6267 279.148 73.9866 278.944 73.3329 278.725C72.6792 278.507 72.0323 278.255 71.3923 277.969C70.7658 277.682 70.2007 277.321 69.6968 276.884C69.2065 276.434 68.8116 275.896 68.512 275.269C68.2124 274.628 68.0626 273.85 68.0626 272.937C68.0626 272.105 68.226 271.314 68.5528 270.564C68.8933 269.814 69.3836 269.153 70.0236 268.58C70.6773 268.007 71.474 267.557 72.4137 267.23C73.3669 266.889 74.4632 266.719 75.7025 266.719C77.1052 266.719 78.3785 266.944 79.5225 267.394C80.6664 267.844 81.6265 268.457 82.4028 269.234L81.4222 270.83Z" fill="#F6F6FF"/>
<path d="M97.9492 278.787C96.383 278.841 95.062 278.971 93.9862 279.175C92.9103 279.366 92.0388 279.619 91.3715 279.932C90.7042 280.232 90.2207 280.594 89.9211 281.016C89.6351 281.439 89.4921 281.903 89.4921 282.407C89.4921 282.898 89.567 283.321 89.7168 283.675C89.8802 284.016 90.0981 284.303 90.3705 284.534C90.6565 284.753 90.9833 284.916 91.351 285.025C91.7323 285.121 92.1477 285.169 92.5971 285.169C93.7411 285.169 94.7216 284.957 95.5387 284.534C96.3694 284.098 97.1729 283.471 97.9492 282.653V278.787ZM86.3054 269.95C88.6614 267.755 91.4668 266.657 94.7216 266.657C95.92 266.657 96.9822 266.855 97.9083 267.25C98.848 267.632 99.631 268.178 100.257 268.887C100.898 269.596 101.381 270.441 101.708 271.423C102.048 272.391 102.219 273.469 102.219 274.655V287.909H100.257C99.8353 287.909 99.5153 287.848 99.2974 287.725C99.0795 287.589 98.8956 287.323 98.7458 286.928L98.3168 285.23C97.7857 285.707 97.2614 286.137 96.7439 286.519C96.2264 286.887 95.6885 287.2 95.1301 287.459C94.5854 287.719 93.993 287.909 93.3529 288.032C92.7265 288.169 92.032 288.237 91.2693 288.237C90.425 288.237 89.6351 288.121 88.8997 287.889C88.1779 287.657 87.5515 287.309 87.0204 286.846C86.4893 286.369 86.0671 285.782 85.7539 285.087C85.4543 284.391 85.3045 283.573 85.3045 282.632C85.3045 281.828 85.5155 281.044 85.9377 280.28C86.3735 279.516 87.0817 278.834 88.0622 278.234C89.0563 277.621 90.3569 277.116 91.9639 276.721C93.5845 276.325 95.5796 276.1 97.9492 276.046V274.655C97.9492 273.155 97.6291 272.037 96.9891 271.3C96.349 270.564 95.4093 270.196 94.17 270.196C93.3257 270.196 92.6175 270.305 92.0456 270.523C91.4736 270.728 90.9765 270.953 90.5544 271.198C90.1322 271.444 89.7577 271.675 89.4308 271.894C89.104 272.098 88.7567 272.2 88.389 272.2C88.0894 272.2 87.8307 272.125 87.6128 271.975C87.4085 271.812 87.2383 271.614 87.1021 271.382L86.3054 269.95Z" fill="#F6F6FF"/>
<path d="M111.469 269.807C111.919 269.344 112.382 268.928 112.858 268.559C113.349 268.178 113.866 267.85 114.411 267.578C114.956 267.305 115.534 267.094 116.147 266.944C116.76 266.794 117.427 266.719 118.149 266.719C119.293 266.719 120.294 266.909 121.152 267.291C122.024 267.673 122.752 268.212 123.338 268.907C123.937 269.603 124.386 270.441 124.686 271.423C124.986 272.391 125.135 273.462 125.135 274.634V287.909H120.764V274.634C120.764 273.23 120.437 272.139 119.783 271.362C119.143 270.584 118.163 270.196 116.842 270.196C115.861 270.196 114.949 270.421 114.105 270.871C113.274 271.321 112.491 271.934 111.755 272.712V287.909H107.363V267.046H110.019C110.618 267.046 111 267.325 111.163 267.884L111.469 269.807Z" fill="#F6F6FF"/>
<path d="M148.233 267.046L136.753 293.841C136.603 294.155 136.419 294.4 136.201 294.578C135.997 294.755 135.677 294.844 135.241 294.844H131.993L135.833 286.498L127.336 267.046H131.156C131.523 267.046 131.802 267.134 131.993 267.312C132.197 267.475 132.347 267.673 132.442 267.905L137.406 279.748C137.529 280.089 137.638 280.43 137.733 280.771C137.842 281.098 137.944 281.439 138.04 281.794C138.149 281.439 138.258 281.091 138.366 280.75C138.475 280.409 138.598 280.069 138.734 279.728L143.494 267.905C143.589 267.659 143.746 267.455 143.964 267.291C144.195 267.128 144.447 267.046 144.719 267.046H148.233Z" fill="#F6F6FF"/>
<path d="M148.941 285.373C148.941 284.978 149.009 284.609 149.145 284.269C149.295 283.914 149.493 283.607 149.738 283.348C149.996 283.089 150.296 282.884 150.636 282.734C150.991 282.584 151.365 282.509 151.76 282.509C152.155 282.509 152.523 282.584 152.863 282.734C153.217 282.884 153.524 283.089 153.782 283.348C154.041 283.607 154.245 283.914 154.395 284.269C154.545 284.609 154.62 284.978 154.62 285.373C154.62 285.782 154.545 286.157 154.395 286.498C154.245 286.839 154.041 287.139 153.782 287.398C153.524 287.657 153.217 287.855 152.863 287.991C152.523 288.141 152.155 288.216 151.76 288.216C151.365 288.216 150.991 288.141 150.636 287.991C150.296 287.855 149.996 287.657 149.738 287.398C149.493 287.139 149.295 286.839 149.145 286.498C149.009 286.157 148.941 285.782 148.941 285.373Z" fill="#F6F6FF"/>
<path d="M170.403 278.787C168.837 278.841 167.516 278.971 166.44 279.175C165.365 279.366 164.493 279.619 163.826 279.932C163.158 280.232 162.675 280.594 162.375 281.016C162.089 281.439 161.946 281.903 161.946 282.407C161.946 282.898 162.021 283.321 162.171 283.675C162.334 284.016 162.552 284.303 162.825 284.534C163.111 284.753 163.438 284.916 163.805 285.025C164.187 285.121 164.602 285.169 165.051 285.169C166.195 285.169 167.176 284.957 167.993 284.534C168.824 284.098 169.627 283.471 170.403 282.653V278.787ZM158.76 269.95C161.116 267.755 163.921 266.657 167.176 266.657C168.374 266.657 169.436 266.855 170.363 267.25C171.302 267.632 172.085 268.178 172.712 268.887C173.352 269.596 173.835 270.441 174.162 271.423C174.503 272.391 174.673 273.469 174.673 274.655V287.909H172.712C172.29 287.909 171.97 287.848 171.752 287.725C171.534 287.589 171.35 287.323 171.2 286.928L170.771 285.23C170.24 285.707 169.716 286.137 169.198 286.519C168.681 286.887 168.143 287.2 167.584 287.459C167.04 287.719 166.447 287.909 165.807 288.032C165.181 288.169 164.486 288.237 163.724 288.237C162.879 288.237 162.089 288.121 161.354 287.889C160.632 287.657 160.006 287.309 159.475 286.846C158.944 286.369 158.521 285.782 158.208 285.087C157.909 284.391 157.759 283.573 157.759 282.632C157.759 281.828 157.97 281.044 158.392 280.28C158.828 279.516 159.536 278.834 160.516 278.234C161.511 277.621 162.811 277.116 164.418 276.721C166.039 276.325 168.034 276.1 170.403 276.046V274.655C170.403 273.155 170.083 272.037 169.443 271.3C168.803 270.564 167.864 270.196 166.624 270.196C165.78 270.196 165.072 270.305 164.5 270.523C163.928 270.728 163.431 270.953 163.009 271.198C162.586 271.444 162.212 271.675 161.885 271.894C161.558 272.098 161.211 272.2 160.843 272.2C160.544 272.2 160.285 272.125 160.067 271.975C159.863 271.812 159.693 271.614 159.556 271.382L158.76 269.95Z" fill="#F6F6FF"/>
<path d="M183.964 270.912C184.618 269.589 185.408 268.553 186.334 267.803C187.26 267.039 188.37 266.657 189.664 266.657C190.113 266.657 190.535 266.712 190.93 266.821C191.325 266.916 191.679 267.066 191.993 267.271L191.686 270.584C191.632 270.816 191.543 270.98 191.421 271.075C191.312 271.157 191.162 271.198 190.971 271.198C190.767 271.198 190.474 271.164 190.093 271.096C189.711 271.014 189.31 270.973 188.888 270.973C188.275 270.973 187.73 271.062 187.253 271.239C186.79 271.416 186.368 271.675 185.987 272.016C185.619 272.357 185.292 272.773 185.006 273.264C184.72 273.755 184.455 274.314 184.21 274.941V287.909H179.818V267.046H182.371C182.834 267.046 183.154 267.134 183.331 267.312C183.508 267.475 183.631 267.769 183.699 268.191L183.964 270.912Z" fill="#F6F6FF"/>
<path d="M201.579 288.237C199.849 288.237 198.515 287.753 197.575 286.784C196.649 285.803 196.186 284.425 196.186 282.653V270.503H193.898C193.653 270.503 193.442 270.428 193.265 270.278C193.088 270.114 192.999 269.875 192.999 269.562V267.782L196.37 267.291L197.33 261.257C197.398 261.025 197.514 260.841 197.677 260.705C197.841 260.555 198.058 260.48 198.331 260.48H200.578V267.332H206.359V270.503H200.578V282.346C200.578 283.096 200.762 283.669 201.129 284.064C201.497 284.459 201.987 284.657 202.6 284.657C202.941 284.657 203.233 284.616 203.479 284.534C203.724 284.439 203.935 284.344 204.112 284.248C204.289 284.139 204.439 284.044 204.561 283.962C204.697 283.866 204.827 283.819 204.949 283.819C205.195 283.819 205.392 283.955 205.542 284.228L206.849 286.375C206.168 286.975 205.365 287.439 204.439 287.766C203.513 288.08 202.559 288.237 201.579 288.237Z" fill="#F6F6FF"/>
<path fill-rule="evenodd" clip-rule="evenodd" d="M10.5385 226.545C10.1714 223.976 7.96411 222 5.29605 222C2.37112 222 0 224.374 0 227.303C0 229.975 1.97294 232.185 4.53947 232.552V311.448C1.97294 311.815 0 314.025 0 316.697C0 319.626 2.37112 322 5.29605 322C7.96411 322 10.1714 320.024 10.5385 317.455H219.462C219.829 320.024 222.036 322 224.704 322C227.629 322 230 319.626 230 316.697C230 314.025 228.027 311.815 225.461 311.448V232.552C228.027 232.185 230 229.975 230 227.303C230 224.374 227.629 222 224.704 222C222.036 222 219.829 223.976 219.462 226.545H10.5385ZM10.5385 315.939C10.2067 313.617 8.37207 311.78 6.05263 311.448V232.552C8.37207 232.22 10.2067 230.383 10.5385 228.061H219.462C219.793 230.383 221.628 232.22 223.947 232.552V311.448C221.628 311.78 219.793 313.617 219.462 315.939H10.5385ZM9.07895 227.303C9.07895 229.395 7.38529 231.091 5.29605 231.091C3.20682 231.091 1.51316 229.395 1.51316 227.303C1.51316 225.211 3.20682 223.515 5.29605 223.515C7.38529 223.515 9.07895 225.211 9.07895 227.303ZM9.07895 316.697C9.07895 318.789 7.38529 320.485 5.29605 320.485C3.20682 320.485 1.51316 318.789 1.51316 316.697C1.51316 314.605 3.20682 312.909 5.29605 312.909C7.38529 312.909 9.07895 314.605 9.07895 316.697ZM224.704 231.091C226.793 231.091 228.487 229.395 228.487 227.303C228.487 225.211 226.793 223.515 224.704 223.515C222.615 223.515 220.921 225.211 220.921 227.303C220.921 229.395 222.615 231.091 224.704 231.091ZM224.704 320.485C226.793 320.485 228.487 318.789 228.487 316.697C228.487 314.605 226.793 312.909 224.704 312.909C222.615 312.909 220.921 314.605 220.921 316.697C220.921 318.789 222.615 320.485 224.704 320.485Z" fill="#22B1FF"/>
</svg>
