<svg width="100" height="116" viewBox="0 0 100 116" fill="none" xmlns="http://www.w3.org/2000/svg">
<g clip-path="url(#clip0)">
<path d="M65.8824 24.4116H0V52.6469H4.11765C4.24471 52.6469 4.88 52.6469 5.76941 52.9857C6.61647 53.3246 7.80235 54.0869 8.60706 55.654C9.11529 56.6704 9.41177 58.0257 9.41177 59.5504C9.41177 61.0751 9.11529 62.4304 8.60706 63.4469C8.43765 63.7857 8.26824 64.0399 8.05647 64.294C8.3953 64.8022 8.60706 65.2681 8.81882 65.7763C9.41177 67.4704 9.41177 68.9104 9.41177 69.0799V88.0963C9.41177 88.8815 9.33314 89.6218 9.18746 90.294H14.3776V59.974C13.8694 59.7622 13.4035 59.4657 12.98 59.0846C12.2176 58.3222 11.6671 57.3057 11.3706 56.374C10.7353 54.5104 10.7353 52.9434 10.7353 52.6469H14.1235V52.9434C14.1395 53.0234 14.1495 53.1156 14.1603 53.2153C14.178 53.3793 14.1979 53.5637 14.2506 53.7481C14.3776 54.3834 14.5894 54.934 14.9282 55.1881C15.14 55.3999 15.4365 55.5693 16.0294 55.6116C16.5376 55.6116 16.8341 55.4422 17.0459 55.2728C17.2576 55.1034 17.3847 54.8916 17.5541 54.5951C17.8082 54.0446 17.9353 53.1128 17.9353 52.774V52.6469H21.3235V52.6893C21.3235 52.9857 21.2812 53.8751 21.0694 55.061C20.8153 56.2893 20.2647 57.8987 19.0365 59.0846C18.6553 59.4657 18.2318 59.7622 17.7235 59.974V90.294H21.6161C21.3235 89.1158 21.3235 88.2272 21.3235 88.0963H24.7118V88.3081C24.7541 88.4775 24.7965 88.7316 24.8388 89.0281C24.9585 89.5465 25.1908 90.0274 25.465 90.294H27.8188C27.9733 90.1392 28.079 89.9453 28.1847 89.6634C28.4812 89.1128 28.5235 88.2657 28.5235 88.0963V88.0116C28.5235 87.8846 28.5235 87.7152 28.4812 87.461C28.4388 86.9528 28.3541 86.1481 28.1424 85.0469C27.7188 82.8022 26.8718 79.3716 25.0929 74.7552C21.4082 64.9716 21.3235 59.8893 21.3235 59.5504C21.3235 59.4234 21.3235 58.5763 21.5776 57.4328C21.8318 56.3316 22.3824 54.8493 23.5682 53.7904C24.3729 53.0704 25.4318 52.6469 26.6176 52.6469C27.8035 52.6469 28.9047 53.0704 29.6671 53.7904C30.4718 54.4681 31.0224 55.3999 31.3188 56.2469C31.829 57.6073 31.9022 58.8039 31.9331 59.3102C31.9407 59.4343 31.9458 59.5171 31.9541 59.5504H28.5235V59.3387C28.5235 59.1693 28.4812 58.9152 28.3965 58.6187C28.2694 58.0681 28.0576 57.5599 27.7612 57.3057C27.5494 57.094 27.2529 56.9246 26.6176 56.9246C26.0671 56.9246 25.7706 57.094 25.5588 57.2634C25.3471 57.4328 25.1776 57.6446 25.0506 57.9834C24.7965 58.534 24.7118 59.381 24.7118 59.5504V59.6352C24.7118 59.6878 24.719 59.7477 24.7275 59.8178C24.7396 59.9171 24.7541 60.0369 24.7541 60.1857C24.7965 60.694 24.9235 61.4987 25.1353 62.5999C25.5588 64.8446 26.4059 68.2752 28.1424 72.8916C31.8694 82.6752 31.9541 87.7575 31.9541 88.0963C31.9541 88.2234 31.9541 89.0704 31.7 90.214C31.6939 90.2404 31.6876 90.2671 31.6812 90.294H32.3708L35.5955 52.6469H38.9414L42.1414 90.294H42.5414V52.6469L49.7414 57.4751V56.2469H53.1296V90.294H58.0955V59.974C57.5872 59.7622 57.1214 59.4657 56.6978 59.0846C55.9355 58.3222 55.3849 57.3057 55.0884 56.374C54.4531 54.5104 54.4531 52.9434 54.4531 52.6469H57.8414V52.9434C57.8574 53.0234 57.8673 53.1155 57.8781 53.2151C57.8958 53.3791 57.9157 53.5637 57.9684 53.7481C58.0955 54.3834 58.3072 54.934 58.6461 55.1881C58.8578 55.3999 59.1543 55.5693 59.7472 55.6116C60.2555 55.6116 60.5519 55.4422 60.7637 55.2728C60.9755 55.1034 61.1025 54.8916 61.272 54.5951C61.5261 54.0446 61.6531 53.1128 61.6531 52.774V52.6469H65.0414V52.6893C65.0414 52.9857 64.999 53.8751 64.7872 55.061C64.5331 56.2893 63.9825 57.8987 62.7543 59.0846C62.3731 59.4657 61.9496 59.7622 61.4414 59.974V90.294H65.8824V24.4116Z" fill="white"/>
<path d="M49.7414 90.294V62.3881L45.9296 59.8469V90.294H49.7414Z" fill="white"/>
<path d="M5.23084 90.294C5.43437 90.1449 5.60264 89.9546 5.72706 89.7057C5.89647 89.4093 6.02353 88.9434 6.02353 88.0963V68.8681C6.00659 68.8003 5.99642 68.719 5.9849 68.6269C5.96763 68.4886 5.9473 68.326 5.89647 68.1481C5.76941 67.5975 5.55765 67.0893 5.21882 66.7928C5.00706 66.6234 4.71059 66.454 4.11765 66.454H2.21176V90.294H5.23084Z" fill="white"/>
<path d="M2.21176 62.1763H4.11765C4.16 62.1763 4.20235 62.1763 4.24471 62.134C4.37177 62.134 4.54118 62.0916 4.75294 62.0069C5.17647 61.8375 5.51529 61.5834 5.72706 61.1599C5.89647 60.821 6.02353 60.3975 6.02353 59.5504C6.02353 58.7457 5.89647 58.3222 5.76941 58.0257C5.64235 57.7293 5.43059 57.5175 5.21882 57.3481C4.83765 57.0516 4.24471 56.9246 4.11765 56.9246H2.21176V62.1763Z" fill="white"/>
<path d="M37.2472 72.7222L36.019 87.1646H38.4755L37.2472 72.7222Z" fill="white"/>
<path d="M77.9765 52.6469H75.0024L71.8777 89.1269L71.7647 90.294H74.7765L75.04 87.4704H77.9388L78.1647 90.294H81.1765L77.9765 52.6469ZM75.3788 83.3293L76.4706 70.4916L77.5624 83.3293H75.3788Z" fill="white"/>
<path d="M89.3835 63.5646C89.5341 63.3387 89.6847 63.0752 89.8353 62.774C90.3247 61.7952 90.5882 60.5152 90.5882 59.0846C90.5882 57.654 90.3247 56.374 89.8353 55.3952C89.12 53.9646 88.1035 53.2869 87.3129 52.9481C86.56 52.6469 85.9577 52.6469 85.8824 52.6469H81.1765V90.294H84.0753V65.5222H85.8824C86.4471 65.5222 86.7482 65.7104 86.9741 65.8987C87.2753 66.1622 87.4635 66.6516 87.5765 67.1787C87.6518 67.4046 87.6518 67.6681 87.6894 67.8187C87.6894 67.894 87.6894 67.9693 87.6894 68.0069V90.294H90.5882V68.0069C90.5882 67.8187 90.5882 66.4634 90.0235 64.8822C89.8729 64.4304 89.6471 63.9787 89.3835 63.5646ZM87.4259 60.5528C87.2376 60.9669 86.8988 61.2681 86.4847 61.4187C86.2965 61.494 86.1459 61.5316 86.0329 61.5316C85.9576 61.5693 85.92 61.5693 85.8824 61.5693H84.0753V56.5999H85.8824C85.9953 56.5999 86.56 56.7128 86.9365 57.014C87.1624 57.2022 87.3129 57.3904 87.4635 57.654C87.5765 57.9552 87.6894 58.3316 87.6894 59.0846C87.6894 59.8752 87.5765 60.2893 87.4259 60.5528Z" fill="white"/>
<path d="M100 52.6469H90.5882V55.8469H93.7882V90.294H96.6494V55.8469H100V52.6469Z" fill="white"/>
<path d="M70.5882 88.5293C70.5882 89.5039 69.7982 90.294 68.8235 90.294C67.8489 90.294 67.0588 89.5039 67.0588 88.5293C67.0588 87.5547 67.8489 86.7646 68.8235 86.7646C69.7982 86.7646 70.5882 87.5547 70.5882 88.5293Z" fill="white"/>
</g>
<defs>
<clipPath id="clip0">
<rect width="100" height="116" fill="white"/>
</clipPath>
</defs>
</svg>
