<svg width="35" height="37" viewBox="0 0 35 37" fill="none" xmlns="http://www.w3.org/2000/svg">
<path fill-rule="evenodd" clip-rule="evenodd" d="M6.57344 34.5877L4.80866 28.0015H16.2129C16.5409 28.0015 16.865 27.9921 17.1847 27.9734C17.9257 30.1679 19.5554 32.215 22.4921 33.4282L10.2477 36.709C8.64728 37.1379 7.00227 36.1881 6.57344 34.5877ZM33.6553 15.8837L31.7531 8.78481C31.0731 8.51117 30.2532 8.35156 29.2871 8.35156C26.3896 8.35156 24.7275 9.72168 24.7275 11.7432C24.7275 13.3828 26.1875 14.3936 28.8379 14.9102L33.2852 15.8086C33.4089 15.8326 33.5323 15.8576 33.6553 15.8837ZM30.1432 2.77661L30.0467 2.41618C29.6178 0.815783 27.9728 -0.133964 26.3724 0.294862L24.2577 0.861499C24.7279 1.55279 25.0649 2.33726 25.2516 3.20712C26.5069 2.91052 27.8701 2.75879 29.3096 2.75879C29.5919 2.75879 29.8698 2.76478 30.1432 2.77661ZM26.6649 21.2974C26.2509 23.1094 25.2638 24.5809 23.8718 25.6787C24.3376 27.4134 26.1809 28.9033 29.3545 28.9033C32.7461 28.9033 34.3633 27.4209 34.3633 25.3994C34.3633 23.4902 32.8135 22.6143 29.8262 21.9854L26.6649 21.2974ZM16.4436 2.95527L8.64258 5.04556V8.70996H12.2139C15.6055 8.70996 17.0654 7.22754 17.0654 5.04883C17.0654 4.22908 16.8512 3.51971 16.4436 2.95527ZM2.39941 6.71841L2.39941 19.01L0.102967 10.4396C-0.325858 8.83918 0.623889 7.19416 2.22429 6.76534L2.39941 6.71841ZM8.64258 13.5H13.3594C16.5937 13.5 18.2334 15.1396 18.2334 17.6328C18.2334 20.126 16.5937 21.6758 12.6182 21.6758H8.64258L8.64258 13.5Z" fill="white"/>
<path fill-rule="evenodd" clip-rule="evenodd" d="M23.0347 1.17239C23.4608 2.05485 23.6886 3.06632 23.6886 4.19307C23.6886 7.88626 21.3253 9.96633 18.54 10.5182V10.8366C19.1741 10.8827 19.8123 11.006 20.4282 11.2094C22.781 10.4073 24.6281 8.40304 24.6281 5.13806C24.6281 3.54445 24.1723 2.18146 23.3445 1.08789L23.0347 1.17239ZM15.9767 27H4.52404L4.27051 26.055H15.0373C20.6501 26.055 25.0602 23.1047 25.0602 17.8409C25.0602 15.9572 24.4957 14.4749 23.6072 13.3673C25.0185 14.5168 25.9996 16.3024 25.9996 18.7859C25.9996 24.0497 21.5896 27 15.9767 27Z" fill="white"/>
</svg>
