<svg width="1339" height="400" viewBox="0 0 1339 400" fill="none" xmlns="http://www.w3.org/2000/svg">
<path fill-rule="evenodd" clip-rule="evenodd" d="M329.109 141.897C326.956 145.114 323.289 147.233 319.128 147.233C318.421 147.233 317.728 147.172 317.054 147.054C323.887 152.262 328.659 160.066 329.899 168.99C331.531 164.675 335.578 161.547 340.391 161.255C338.284 153.863 334.349 147.232 329.109 141.897ZM340.639 185.223C335.55 204.601 317.956 218.979 297.061 218.979C272.192 218.979 252 198.614 252 173.692C252 148.77 272.263 128.405 297.061 128.405C300.975 128.405 304.774 128.909 308.396 129.857C307.585 131.474 307.128 133.3 307.128 135.233C307.128 138.145 308.165 140.815 309.89 142.893C305.942 141.221 301.606 140.296 297.061 140.296C278.781 140.296 263.903 155.249 263.903 173.621C263.903 191.992 278.781 206.945 297.061 206.945C313.976 206.945 327.98 194.14 329.975 177.67C331.682 181.958 335.79 185.029 340.639 185.223Z" fill="#297BCC" fill-opacity="0.5"/>
<path fill-rule="evenodd" clip-rule="evenodd" d="M297.061 196.336C309.504 196.336 319.591 186.198 319.591 173.692C319.591 161.186 309.504 151.048 297.061 151.048C284.618 151.048 274.53 161.186 274.53 173.692C274.53 186.198 284.618 196.336 297.061 196.336Z" fill="#22B1FF"/>
<path fill-rule="evenodd" clip-rule="evenodd" d="M329.612 141.075C333.289 142.053 337.149 142.575 341.129 142.575C345.108 142.575 348.968 142.053 352.644 141.075C351.678 139.346 351.128 137.354 351.128 135.233C351.128 132.589 351.983 130.145 353.431 128.162C349.625 129.696 345.473 130.541 341.129 130.541C336.784 130.541 332.63 129.696 328.823 128.16C330.272 130.144 331.128 132.588 331.128 135.233C331.128 137.353 330.578 139.346 329.612 141.075ZM308.921 128.919C300.972 120.742 296.069 109.568 296.069 97.2874C296.069 72.3651 316.332 52 341.129 52C365.998 52 386.19 72.3651 386.19 97.2874C386.19 109.569 381.286 120.744 373.336 128.921C371.22 125.507 367.439 123.233 363.128 123.233C362.653 123.233 362.184 123.26 361.724 123.314C369.373 117.203 374.287 107.774 374.287 97.2162C374.287 78.8449 359.409 63.8915 341.129 63.8915C322.85 63.8915 307.972 78.8449 307.972 97.2162C307.972 107.774 312.886 117.204 320.536 123.314C320.074 123.26 319.604 123.233 319.128 123.233C314.817 123.233 311.037 125.506 308.921 128.919Z" fill="#297BCC" fill-opacity="0.5"/>
<path fill-rule="evenodd" clip-rule="evenodd" d="M341.129 119.86C353.573 119.86 363.66 109.722 363.66 97.2162C363.66 84.7104 353.573 74.5725 341.129 74.5725C328.686 74.5725 318.599 84.7104 318.599 97.2162C318.599 109.722 328.686 119.86 341.129 119.86Z" fill="#22B1FF"/>
<path fill-rule="evenodd" clip-rule="evenodd" d="M365.488 147.001C364.725 147.153 363.936 147.233 363.128 147.233C359.029 147.233 355.411 145.178 353.246 142.043C348.068 147.357 344.174 153.939 342.082 161.27C346.961 161.654 351.02 164.957 352.514 169.433C353.659 160.294 358.504 152.294 365.488 147.001ZM372.242 143.039C376.281 141.275 380.735 140.296 385.411 140.296C403.69 140.296 418.569 155.249 418.569 173.621C418.569 191.992 403.69 206.945 385.411 206.945C368.344 206.945 354.242 193.911 352.446 177.229C350.874 181.681 346.749 184.929 341.83 185.212C346.915 204.596 364.512 218.979 385.411 218.979C410.279 218.979 430.472 198.614 430.472 173.692C430.472 148.77 410.279 128.405 385.411 128.405C381.431 128.405 377.568 128.929 373.887 129.913C374.681 131.516 375.128 133.322 375.128 135.233C375.128 138.213 374.041 140.94 372.242 143.039Z" fill="#297BCC" fill-opacity="0.5"/>
<path fill-rule="evenodd" clip-rule="evenodd" d="M385.411 196.336C397.854 196.336 407.941 186.198 407.941 173.692C407.941 161.186 397.854 151.048 385.411 151.048C372.968 151.048 362.88 161.186 362.88 173.692C362.88 186.198 372.968 196.336 385.411 196.336Z" fill="#22B1FF"/>
<path fill-rule="evenodd" clip-rule="evenodd" d="M319.095 145.067C324.417 145.067 328.731 140.731 328.731 135.383C328.731 130.034 324.417 125.699 319.095 125.699C313.773 125.699 309.459 130.034 309.459 135.383C309.459 140.731 313.773 145.067 319.095 145.067Z" fill="#297BCC"/>
<path fill-rule="evenodd" clip-rule="evenodd" d="M362.88 145.067C368.202 145.067 372.516 140.731 372.516 135.383C372.516 130.034 368.202 125.699 362.88 125.699C357.559 125.699 353.245 130.034 353.245 135.383C353.245 140.731 357.559 145.067 362.88 145.067Z" fill="#297BCC"/>
<path fill-rule="evenodd" clip-rule="evenodd" d="M341.129 183.234C346.451 183.234 350.765 178.898 350.765 173.55C350.765 168.201 346.451 163.865 341.129 163.865C335.808 163.865 331.494 168.201 331.494 173.55C331.494 178.898 335.808 183.234 341.129 183.234Z" fill="#297BCC"/>
<path fill-rule="evenodd" clip-rule="evenodd" d="M565.5 93C571.851 93 577 87.8513 577 81.5C577 75.1487 571.851 70 565.5 70C559.149 70 554 75.1487 554 81.5C554 87.8513 559.149 93 565.5 93Z" fill="#22B1FF"/>
<path fill-rule="evenodd" clip-rule="evenodd" d="M565.5 101C569.116 101 572.134 103.559 572.843 106.964C581.559 104.445 588.445 97.5588 590.964 88.8427C587.559 88.134 585 85.1158 585 81.5C585 77.8842 587.559 74.8659 590.964 74.1573C587.771 63.1085 577.56 55 565.5 55C550.894 55 539 66.8937 539 81.5C539 93.5601 547.108 103.771 558.157 106.964C558.866 103.559 561.884 101 565.5 101ZM565.5 63.903C555.832 63.903 547.903 71.7626 547.903 81.5001C547.903 91.1681 555.763 99.0972 565.5 99.0972C575.168 99.0972 583.097 91.2376 583.097 81.5001C583.097 71.8321 575.168 63.903 565.5 63.903Z" fill="#297BCC" fill-opacity="0.5"/>
<path fill-rule="evenodd" clip-rule="evenodd" d="M565.5 114C568.538 114 571 111.538 571 108.5C571 105.462 568.538 103 565.5 103C562.462 103 560 105.462 560 108.5C560 111.538 562.462 114 565.5 114Z" fill="#22B1FF"/>
<path fill-rule="evenodd" clip-rule="evenodd" d="M587 81.5C587 84.5376 589.462 87 592.5 87C595.538 87 598 84.5376 598 81.5C598 78.4624 595.538 76 592.5 76C589.462 76 587 78.4624 587 81.5Z" fill="#22B1FF"/>
<path fill-rule="evenodd" clip-rule="evenodd" d="M577 189.5C577 183.149 571.851 178 565.5 178C559.149 178 554 183.149 554 189.5C554 195.851 559.149 201 565.5 201C571.851 201 577 195.851 577 189.5Z" fill="#22B1FF"/>
<path fill-rule="evenodd" clip-rule="evenodd" d="M585 189.5C585 185.884 587.559 182.866 590.964 182.157C588.445 173.441 581.559 166.555 572.843 164.036C572.134 167.441 569.116 170 565.5 170C561.884 170 558.866 167.441 558.157 164.036C547.108 167.229 539 177.44 539 189.5C539 204.106 550.894 216 565.5 216C577.56 216 587.771 207.892 590.964 196.843C587.559 196.134 585 193.116 585 189.5ZM547.903 189.5C547.903 199.168 555.763 207.097 565.5 207.097C575.168 207.097 583.097 199.238 583.097 189.5C583.097 179.832 575.238 171.903 565.5 171.903C555.832 171.903 547.903 179.832 547.903 189.5Z" fill="#297BCC" fill-opacity="0.5"/>
<path fill-rule="evenodd" clip-rule="evenodd" d="M598 189.5C598 186.462 595.538 184 592.5 184C589.462 184 587 186.462 587 189.5C587 192.538 589.462 195 592.5 195C595.538 195 598 192.538 598 189.5Z" fill="#297BCC"/>
<path fill-rule="evenodd" clip-rule="evenodd" d="M565.5 168C568.538 168 571 165.538 571 162.5C571 159.462 568.538 157 565.5 157C562.462 157 560 159.462 560 162.5C560 165.538 562.462 168 565.5 168Z" fill="#297BCC"/>
<path fill-rule="evenodd" clip-rule="evenodd" d="M565.5 147C571.851 147 577 141.851 577 135.5C577 129.149 571.851 124 565.5 124C559.149 124 554 129.149 554 135.5C554 141.851 559.149 147 565.5 147Z" fill="#22B1FF"/>
<path fill-rule="evenodd" clip-rule="evenodd" d="M572.843 110.036C572.134 113.441 569.116 116 565.5 116C561.884 116 558.866 113.441 558.157 110.036C547.108 113.229 539 123.44 539 135.5C539 147.56 547.108 157.771 558.157 160.964C558.866 157.559 561.884 155 565.5 155C569.116 155 572.134 157.559 572.843 160.964C581.559 158.445 588.445 151.559 590.964 142.843C587.559 142.134 585 139.116 585 135.5C585 131.884 587.559 128.866 590.964 128.157C588.445 119.441 581.559 112.555 572.843 110.036ZM547.903 135.5C547.903 125.763 555.832 117.903 565.5 117.903C575.168 117.903 583.097 125.832 583.097 135.5C583.097 145.238 575.168 153.097 565.5 153.097C555.763 153.097 547.903 145.168 547.903 135.5Z" fill="#297BCC" fill-opacity="0.5"/>
<path fill-rule="evenodd" clip-rule="evenodd" d="M565.5 114C568.538 114 571 111.538 571 108.5C571 105.462 568.538 103 565.5 103C562.462 103 560 105.462 560 108.5C560 111.538 562.462 114 565.5 114Z" fill="#297BCC"/>
<path fill-rule="evenodd" clip-rule="evenodd" d="M565.5 168C568.538 168 571 165.538 571 162.5C571 159.462 568.538 157 565.5 157C562.462 157 560 159.462 560 162.5C560 165.538 562.462 168 565.5 168Z" fill="#297BCC"/>
<path fill-rule="evenodd" clip-rule="evenodd" d="M587 135.5C587 138.538 589.462 141 592.5 141C595.538 141 598 138.538 598 135.5C598 132.462 595.538 130 592.5 130C589.462 130 587 132.462 587 135.5Z" fill="#297BCC"/>
<path fill-rule="evenodd" clip-rule="evenodd" d="M727.5 178C721.149 178 716 183.149 716 189.5C716 195.851 721.149 201 727.5 201C733.851 201 739 195.851 739 189.5C739 183.149 733.851 178 727.5 178Z" fill="#22B1FF"/>
<path fill-rule="evenodd" clip-rule="evenodd" d="M727.5 170C723.884 170 720.866 167.441 720.157 164.036C711.441 166.555 704.555 173.441 702.036 182.157C705.441 182.866 708 185.884 708 189.5C708 193.116 705.441 196.134 702.036 196.843C705.229 207.892 715.44 216 727.5 216C742.106 216 754 204.106 754 189.5C754 177.44 745.892 167.229 734.843 164.036C734.134 167.441 731.116 170 727.5 170ZM727.5 207.097C737.168 207.097 745.097 199.237 745.097 189.5C745.097 179.832 737.238 171.903 727.5 171.903C717.832 171.903 709.903 179.762 709.903 189.5C709.903 199.168 717.832 207.097 727.5 207.097Z" fill="#297BCC" fill-opacity="0.5"/>
<path fill-rule="evenodd" clip-rule="evenodd" d="M727.5 157C724.462 157 722 159.462 722 162.5C722 165.538 724.462 168 727.5 168C730.538 168 733 165.538 733 162.5C733 159.462 730.538 157 727.5 157Z" fill="#297BCC"/>
<path fill-rule="evenodd" clip-rule="evenodd" d="M706 189.5C706 186.462 703.538 184 700.5 184C697.462 184 695 186.462 695 189.5C695 192.538 697.462 195 700.5 195C703.538 195 706 192.538 706 189.5Z" fill="#297BCC"/>
<path fill-rule="evenodd" clip-rule="evenodd" d="M716 81.5C716 87.8513 721.149 93 727.5 93C733.851 93 739 87.8513 739 81.5C739 75.1487 733.851 70 727.5 70C721.149 70 716 75.1487 716 81.5Z" fill="#22B1FF"/>
<path fill-rule="evenodd" clip-rule="evenodd" d="M708 81.5C708 85.1158 705.441 88.134 702.036 88.8426C704.555 97.5588 711.441 104.445 720.157 106.964C720.866 103.559 723.884 101 727.5 101C731.116 101 734.134 103.559 734.843 106.964C745.892 103.771 754 93.5601 754 81.5C754 66.8937 742.106 55 727.5 55C715.44 55 705.229 63.1085 702.036 74.1573C705.441 74.8659 708 77.8841 708 81.5ZM745.097 81.5C745.097 71.832 737.237 63.9029 727.5 63.9029C717.832 63.9029 709.903 71.7625 709.903 81.5C709.903 91.168 717.762 99.0971 727.5 99.0971C737.168 99.0971 745.097 91.168 745.097 81.5Z" fill="#297BCC" fill-opacity="0.5"/>
<path fill-rule="evenodd" clip-rule="evenodd" d="M695 81.5C695 84.5376 697.462 87 700.5 87C703.538 87 706 84.5376 706 81.5C706 78.4624 703.538 76 700.5 76C697.462 76 695 78.4624 695 81.5Z" fill="#297BCC"/>
<path fill-rule="evenodd" clip-rule="evenodd" d="M727.5 103C724.462 103 722 105.462 722 108.5C722 111.538 724.462 114 727.5 114C730.538 114 733 111.538 733 108.5C733 105.462 730.538 103 727.5 103Z" fill="#297BCC"/>
<path fill-rule="evenodd" clip-rule="evenodd" d="M727.5 124C721.149 124 716 129.149 716 135.5C716 141.851 721.149 147 727.5 147C733.851 147 739 141.851 739 135.5C739 129.149 733.851 124 727.5 124Z" fill="#22B1FF"/>
<path fill-rule="evenodd" clip-rule="evenodd" d="M720.157 160.964C720.866 157.559 723.884 155 727.5 155C731.116 155 734.134 157.559 734.843 160.964C745.892 157.771 754 147.56 754 135.5C754 123.44 745.892 113.229 734.843 110.036C734.134 113.441 731.116 116 727.5 116C723.884 116 720.866 113.441 720.157 110.036C711.441 112.555 704.555 119.441 702.036 128.157C705.441 128.866 708 131.884 708 135.5C708 139.116 705.441 142.134 702.036 142.843C704.555 151.559 711.441 158.445 720.157 160.964ZM745.097 135.5C745.097 145.237 737.168 153.097 727.5 153.097C717.832 153.097 709.903 145.168 709.903 135.5C709.903 125.762 717.832 117.903 727.5 117.903C737.238 117.903 745.097 125.832 745.097 135.5Z" fill="#297BCC" fill-opacity="0.5"/>
<path fill-rule="evenodd" clip-rule="evenodd" d="M727.5 157C724.462 157 722 159.462 722 162.5C722 165.538 724.462 168 727.5 168C730.538 168 733 165.538 733 162.5C733 159.462 730.538 157 727.5 157Z" fill="#297BCC"/>
<path fill-rule="evenodd" clip-rule="evenodd" d="M727.5 103C724.462 103 722 105.462 722 108.5C722 111.538 724.462 114 727.5 114C730.538 114 733 111.538 733 108.5C733 105.462 730.538 103 727.5 103Z" fill="#297BCC"/>
<path fill-rule="evenodd" clip-rule="evenodd" d="M706 135.5C706 132.462 703.538 130 700.5 130C697.462 130 695 132.462 695 135.5C695 138.538 697.462 141 700.5 141C703.538 141 706 138.538 706 135.5Z" fill="#297BCC"/>
<path fill-rule="evenodd" clip-rule="evenodd" d="M619.5 93C625.851 93 631 87.8513 631 81.5C631 75.1487 625.851 70 619.5 70C613.149 70 608 75.1487 608 81.5C608 87.8513 613.149 93 619.5 93Z" fill="#22B1FF"/>
<path fill-rule="evenodd" clip-rule="evenodd" d="M626.843 106.964C626.134 103.559 623.116 101 619.5 101C615.884 101 612.866 103.559 612.157 106.964C603.441 104.445 596.555 97.5588 594.036 88.8426C597.441 88.134 600 85.1158 600 81.5C600 77.8842 597.441 74.866 594.036 74.1574C597.229 63.1085 607.44 55 619.5 55C631.56 55 641.771 63.1085 644.964 74.1573C641.559 74.8659 639 77.8842 639 81.5C639 85.1158 641.559 88.134 644.964 88.8427C642.445 97.5588 635.559 104.445 626.843 106.964ZM601.903 81.5001C601.903 71.7626 609.832 63.903 619.5 63.903C629.168 63.903 637.097 71.8321 637.097 81.5001C637.097 91.2376 629.168 99.0972 619.5 99.0972C609.763 99.0972 601.903 91.1681 601.903 81.5001Z" fill="#297BCC" fill-opacity="0.5"/>
<path fill-rule="evenodd" clip-rule="evenodd" d="M619.5 114C622.538 114 625 111.538 625 108.5C625 105.462 622.538 103 619.5 103C616.462 103 614 105.462 614 108.5C614 111.538 616.462 114 619.5 114Z" fill="#297BCC"/>
<path fill-rule="evenodd" clip-rule="evenodd" d="M641 81.5C641 84.5376 643.462 87 646.5 87C649.538 87 652 84.5376 652 81.5C652 78.4624 649.538 76 646.5 76C643.462 76 641 78.4624 641 81.5Z" fill="#297BCC"/>
<path fill-rule="evenodd" clip-rule="evenodd" d="M587 81.5C587 84.5376 589.462 87 592.5 87C595.538 87 598 84.5376 598 81.5C598 78.4624 595.538 76 592.5 76C589.462 76 587 78.4624 587 81.5Z" fill="#297BCC"/>
<path fill-rule="evenodd" clip-rule="evenodd" d="M619.5 178C613.149 178 608 183.149 608 189.5C608 195.851 613.149 201 619.5 201C625.851 201 631 195.851 631 189.5C631 183.149 625.851 178 619.5 178Z" fill="#22B1FF"/>
<path fill-rule="evenodd" clip-rule="evenodd" d="M612.157 164.036C612.866 167.441 615.884 170 619.5 170C623.116 170 626.134 167.441 626.843 164.036C635.559 166.555 642.445 173.441 644.964 182.157C641.559 182.866 639 185.884 639 189.5C639 193.116 641.559 196.134 644.964 196.843C641.771 207.892 631.56 216 619.5 216C607.44 216 597.229 207.892 594.036 196.843C597.441 196.134 600 193.116 600 189.5C600 185.884 597.441 182.866 594.036 182.157C596.555 173.441 603.441 166.555 612.157 164.036ZM637.097 189.5C637.097 199.237 629.168 207.097 619.5 207.097C609.832 207.097 601.903 199.168 601.903 189.5C601.903 179.762 609.832 171.903 619.5 171.903C629.237 171.903 637.097 179.832 637.097 189.5Z" fill="#297BCC" fill-opacity="0.5"/>
<path fill-rule="evenodd" clip-rule="evenodd" d="M619.5 157C616.462 157 614 159.462 614 162.5C614 165.538 616.462 168 619.5 168C622.538 168 625 165.538 625 162.5C625 159.462 622.538 157 619.5 157Z" fill="#297BCC"/>
<path fill-rule="evenodd" clip-rule="evenodd" d="M598 189.5C598 186.462 595.538 184 592.5 184C589.462 184 587 186.462 587 189.5C587 192.538 589.462 195 592.5 195C595.538 195 598 192.538 598 189.5Z" fill="#297BCC"/>
<path fill-rule="evenodd" clip-rule="evenodd" d="M652 189.5C652 186.462 649.538 184 646.5 184C643.462 184 641 186.462 641 189.5C641 192.538 643.462 195 646.5 195C649.538 195 652 192.538 652 189.5Z" fill="#297BCC"/>
<path fill-rule="evenodd" clip-rule="evenodd" d="M619.5 147C625.851 147 631 141.851 631 135.5C631 129.149 625.851 124 619.5 124C613.149 124 608 129.149 608 135.5C608 141.851 613.149 147 619.5 147Z" fill="#22B1FF"/>
<path fill-rule="evenodd" clip-rule="evenodd" d="M619.5 116C623.116 116 626.134 113.441 626.843 110.036C635.559 112.555 642.445 119.441 644.964 128.157C641.559 128.866 639 131.884 639 135.5C639 139.116 641.559 142.134 644.964 142.843C642.445 151.559 635.559 158.445 626.843 160.964C626.134 157.559 623.116 155 619.5 155C615.884 155 612.866 157.559 612.157 160.964C603.441 158.445 596.555 151.559 594.036 142.843C597.441 142.134 600 139.116 600 135.5C600 131.884 597.441 128.866 594.036 128.157C596.555 119.441 603.441 112.555 612.157 110.036C612.866 113.441 615.884 116 619.5 116ZM619.5 117.903C609.832 117.903 601.903 125.763 601.903 135.5C601.903 145.168 609.763 153.097 619.5 153.097C629.168 153.097 637.097 145.238 637.097 135.5C637.097 125.832 629.168 117.903 619.5 117.903Z" fill="#297BCC" fill-opacity="0.5"/>
<path fill-rule="evenodd" clip-rule="evenodd" d="M619.5 114C622.538 114 625 111.538 625 108.5C625 105.462 622.538 103 619.5 103C616.462 103 614 105.462 614 108.5C614 111.538 616.462 114 619.5 114Z" fill="#297BCC"/>
<path fill-rule="evenodd" clip-rule="evenodd" d="M619.5 168C622.538 168 625 165.538 625 162.5C625 159.462 622.538 157 619.5 157C616.462 157 614 159.462 614 162.5C614 165.538 616.462 168 619.5 168Z" fill="#297BCC"/>
<path fill-rule="evenodd" clip-rule="evenodd" d="M641 135.5C641 138.538 643.462 141 646.5 141C649.538 141 652 138.538 652 135.5C652 132.462 649.538 130 646.5 130C643.462 130 641 132.462 641 135.5Z" fill="#297BCC"/>
<path fill-rule="evenodd" clip-rule="evenodd" d="M587 135.5C587 138.538 589.462 141 592.5 141C595.538 141 598 138.538 598 135.5C598 132.462 595.538 130 592.5 130C589.462 130 587 132.462 587 135.5Z" fill="#297BCC"/>
<path fill-rule="evenodd" clip-rule="evenodd" d="M673.5 93C679.851 93 685 87.8513 685 81.5C685 75.1487 679.851 70 673.5 70C667.149 70 662 75.1487 662 81.5C662 87.8513 667.149 93 673.5 93Z" fill="#22B1FF"/>
<path fill-rule="evenodd" clip-rule="evenodd" d="M680.843 106.964C680.134 103.559 677.116 101 673.5 101C669.884 101 666.866 103.559 666.157 106.964C657.441 104.445 650.555 97.5588 648.036 88.8426C651.441 88.134 654 85.1158 654 81.5C654 77.8842 651.441 74.866 648.036 74.1574C651.229 63.1085 661.44 55 673.5 55C685.56 55 695.771 63.1085 698.964 74.1573C695.559 74.8659 693 77.8842 693 81.5C693 85.1158 695.559 88.134 698.964 88.8427C696.445 97.5588 689.559 104.445 680.843 106.964ZM655.903 81.5001C655.903 71.7626 663.832 63.903 673.5 63.903C683.168 63.903 691.097 71.8321 691.097 81.5001C691.097 91.2376 683.168 99.0972 673.5 99.0972C663.763 99.0972 655.903 91.1681 655.903 81.5001Z" fill="#297BCC" fill-opacity="0.5"/>
<path fill-rule="evenodd" clip-rule="evenodd" d="M673.5 114C676.538 114 679 111.538 679 108.5C679 105.462 676.538 103 673.5 103C670.462 103 668 105.462 668 108.5C668 111.538 670.462 114 673.5 114Z" fill="#297BCC"/>
<path fill-rule="evenodd" clip-rule="evenodd" d="M695 81.5C695 84.5376 697.462 87 700.5 87C703.538 87 706 84.5376 706 81.5C706 78.4624 703.538 76 700.5 76C697.462 76 695 78.4624 695 81.5Z" fill="#297BCC"/>
<path fill-rule="evenodd" clip-rule="evenodd" d="M641 81.5C641 84.5376 643.462 87 646.5 87C649.538 87 652 84.5376 652 81.5C652 78.4624 649.538 76 646.5 76C643.462 76 641 78.4624 641 81.5Z" fill="#297BCC"/>
<path fill-rule="evenodd" clip-rule="evenodd" d="M673.5 178C667.149 178 662 183.149 662 189.5C662 195.851 667.149 201 673.5 201C679.851 201 685 195.851 685 189.5C685 183.149 679.851 178 673.5 178Z" fill="#22B1FF"/>
<path fill-rule="evenodd" clip-rule="evenodd" d="M666.157 164.036C666.866 167.441 669.884 170 673.5 170C677.116 170 680.134 167.441 680.843 164.036C689.559 166.555 696.445 173.441 698.964 182.157C695.559 182.866 693 185.884 693 189.5C693 193.116 695.559 196.134 698.964 196.843C695.771 207.892 685.56 216 673.5 216C661.44 216 651.229 207.892 648.036 196.843C651.441 196.134 654 193.116 654 189.5C654 185.884 651.441 182.866 648.036 182.157C650.555 173.441 657.441 166.555 666.157 164.036ZM691.097 189.5C691.097 199.237 683.168 207.097 673.5 207.097C663.832 207.097 655.903 199.168 655.903 189.5C655.903 179.762 663.832 171.903 673.5 171.903C683.237 171.903 691.097 179.832 691.097 189.5Z" fill="#297BCC" fill-opacity="0.5"/>
<path fill-rule="evenodd" clip-rule="evenodd" d="M673.5 157C670.462 157 668 159.462 668 162.5C668 165.538 670.462 168 673.5 168C676.538 168 679 165.538 679 162.5C679 159.462 676.538 157 673.5 157Z" fill="#297BCC"/>
<path fill-rule="evenodd" clip-rule="evenodd" d="M652 189.5C652 186.462 649.538 184 646.5 184C643.462 184 641 186.462 641 189.5C641 192.538 643.462 195 646.5 195C649.538 195 652 192.538 652 189.5Z" fill="#297BCC"/>
<path fill-rule="evenodd" clip-rule="evenodd" d="M706 189.5C706 186.462 703.538 184 700.5 184C697.462 184 695 186.462 695 189.5C695 192.538 697.462 195 700.5 195C703.538 195 706 192.538 706 189.5Z" fill="#297BCC"/>
<path fill-rule="evenodd" clip-rule="evenodd" d="M673.5 147C679.851 147 685 141.851 685 135.5C685 129.149 679.851 124 673.5 124C667.149 124 662 129.149 662 135.5C662 141.851 667.149 147 673.5 147Z" fill="#22B1FF"/>
<path fill-rule="evenodd" clip-rule="evenodd" d="M673.5 116C677.116 116 680.134 113.441 680.843 110.036C689.559 112.555 696.445 119.441 698.964 128.157C695.559 128.866 693 131.884 693 135.5C693 139.116 695.559 142.134 698.964 142.843C696.445 151.559 689.559 158.445 680.843 160.964C680.134 157.559 677.116 155 673.5 155C669.884 155 666.866 157.559 666.157 160.964C657.441 158.445 650.555 151.559 648.036 142.843C651.441 142.134 654 139.116 654 135.5C654 131.884 651.441 128.866 648.036 128.157C650.555 119.441 657.441 112.555 666.157 110.036C666.866 113.441 669.884 116 673.5 116ZM673.5 117.903C663.832 117.903 655.903 125.763 655.903 135.5C655.903 145.168 663.763 153.097 673.5 153.097C683.168 153.097 691.097 145.238 691.097 135.5C691.097 125.832 683.168 117.903 673.5 117.903Z" fill="#297BCC" fill-opacity="0.5"/>
<path fill-rule="evenodd" clip-rule="evenodd" d="M673.5 114C676.538 114 679 111.538 679 108.5C679 105.462 676.538 103 673.5 103C670.462 103 668 105.462 668 108.5C668 111.538 670.462 114 673.5 114Z" fill="#297BCC"/>
<path fill-rule="evenodd" clip-rule="evenodd" d="M673.5 168C676.538 168 679 165.538 679 162.5C679 159.462 676.538 157 673.5 157C670.462 157 668 159.462 668 162.5C668 165.538 670.462 168 673.5 168Z" fill="#297BCC"/>
<path fill-rule="evenodd" clip-rule="evenodd" d="M695 135.5C695 138.538 697.462 141 700.5 141C703.538 141 706 138.538 706 135.5C706 132.462 703.538 130 700.5 130C697.462 130 695 132.462 695 135.5Z" fill="#297BCC"/>
<path fill-rule="evenodd" clip-rule="evenodd" d="M641 135.5C641 138.538 643.462 141 646.5 141C649.538 141 652 138.538 652 135.5C652 132.462 649.538 130 646.5 130C643.462 130 641 132.462 641 135.5Z" fill="#297BCC"/>
<path d="M254.797 264.75H259.016L263.047 276.594L267.109 264.75H271.344V288H268.422V267.453L264.266 279.703H261.875L257.703 267.453V288H254.797V264.75ZM287.656 276.359C287.656 272.932 287.302 270.484 286.594 269.016C285.896 267.547 284.745 266.812 283.141 266.812C281.547 266.812 280.396 267.547 279.688 269.016C278.99 270.484 278.641 272.932 278.641 276.359C278.641 279.776 278.99 282.219 279.688 283.688C280.396 285.156 281.547 285.891 283.141 285.891C284.745 285.891 285.896 285.161 286.594 283.703C287.302 282.234 287.656 279.786 287.656 276.359ZM290.953 276.359C290.953 280.422 290.307 283.453 289.016 285.453C287.734 287.453 285.776 288.453 283.141 288.453C280.505 288.453 278.547 287.458 277.266 285.469C275.984 283.479 275.344 280.443 275.344 276.359C275.344 272.286 275.984 269.25 277.266 267.25C278.557 265.25 280.516 264.25 283.141 264.25C285.776 264.25 287.734 265.25 289.016 267.25C290.307 269.25 290.953 272.286 290.953 276.359ZM296.156 264.672H299.328V285.344H310.594V288H296.156V264.672ZM315.156 264.672H329V267.328H318.312V273.609H328.531V276.266H318.312V285.344H329.297V288H315.156V264.672ZM348.125 287.172C347.323 287.599 346.5 287.917 345.656 288.125C344.812 288.344 343.917 288.453 342.969 288.453C339.979 288.453 337.656 287.396 336 285.281C334.354 283.167 333.531 280.193 333.531 276.359C333.531 272.547 334.359 269.578 336.016 267.453C337.682 265.318 340 264.25 342.969 264.25C343.917 264.25 344.812 264.359 345.656 264.578C346.5 264.786 347.323 265.104 348.125 265.531V268.766C347.354 268.13 346.526 267.646 345.641 267.312C344.755 266.979 343.865 266.812 342.969 266.812C340.917 266.812 339.38 267.604 338.359 269.188C337.339 270.771 336.828 273.161 336.828 276.359C336.828 279.547 337.339 281.932 338.359 283.516C339.38 285.099 340.917 285.891 342.969 285.891C343.885 285.891 344.781 285.724 345.656 285.391C346.542 285.057 347.365 284.573 348.125 283.938V287.172ZM352.938 279.047V264.672H356.109V280.484C356.109 281.62 356.141 282.432 356.203 282.922C356.266 283.401 356.375 283.771 356.531 284.031C356.865 284.646 357.344 285.109 357.969 285.422C358.604 285.734 359.37 285.891 360.266 285.891C361.172 285.891 361.938 285.734 362.562 285.422C363.188 285.109 363.672 284.646 364.016 284.031C364.172 283.771 364.281 283.401 364.344 282.922C364.406 282.443 364.438 281.641 364.438 280.516V264.672H367.594V279.047C367.594 281.432 367.443 283.13 367.141 284.141C366.849 285.141 366.339 285.969 365.609 286.625C364.922 287.24 364.135 287.698 363.25 288C362.365 288.302 361.37 288.453 360.266 288.453C359.172 288.453 358.182 288.302 357.297 288C356.411 287.698 355.62 287.24 354.922 286.625C354.203 285.979 353.693 285.146 353.391 284.125C353.089 283.094 352.938 281.401 352.938 279.047ZM373.281 264.672H376.453V285.344H387.719V288H373.281V264.672ZM392.281 264.672H406.125V267.328H395.438V273.609H405.656V276.266H395.438V285.344H406.422V288H392.281V264.672ZM424.297 265.469V268.672C423.339 268.057 422.375 267.594 421.406 267.281C420.448 266.969 419.479 266.812 418.5 266.812C417.01 266.812 415.833 267.161 414.969 267.859C414.104 268.547 413.672 269.479 413.672 270.656C413.672 271.688 413.953 272.474 414.516 273.016C415.089 273.557 416.151 274.01 417.703 274.375L419.359 274.75C421.547 275.26 423.141 276.062 424.141 277.156C425.141 278.25 425.641 279.74 425.641 281.625C425.641 283.844 424.953 285.536 423.578 286.703C422.203 287.87 420.203 288.453 417.578 288.453C416.484 288.453 415.385 288.333 414.281 288.094C413.177 287.865 412.068 287.516 410.953 287.047V283.688C412.151 284.448 413.281 285.005 414.344 285.359C415.417 285.714 416.495 285.891 417.578 285.891C419.172 285.891 420.411 285.536 421.297 284.828C422.182 284.109 422.625 283.109 422.625 281.828C422.625 280.661 422.318 279.771 421.703 279.156C421.099 278.542 420.042 278.068 418.531 277.734L416.844 277.344C414.677 276.854 413.104 276.115 412.125 275.125C411.146 274.135 410.656 272.807 410.656 271.141C410.656 269.057 411.354 267.391 412.75 266.141C414.156 264.88 416.021 264.25 418.344 264.25C419.24 264.25 420.182 264.354 421.172 264.562C422.161 264.76 423.203 265.062 424.297 265.469Z" fill="#8591B0"/>
<path d="M573.875 276.359C573.875 272.932 573.521 270.484 572.812 269.016C572.115 267.547 570.964 266.812 569.359 266.812C567.766 266.812 566.615 267.547 565.906 269.016C565.208 270.484 564.859 272.932 564.859 276.359C564.859 279.776 565.208 282.219 565.906 283.688C566.615 285.156 567.766 285.891 569.359 285.891C570.964 285.891 572.115 285.161 572.812 283.703C573.521 282.234 573.875 279.786 573.875 276.359ZM577.172 276.359C577.172 280.422 576.526 283.453 575.234 285.453C573.953 287.453 571.995 288.453 569.359 288.453C566.724 288.453 564.766 287.458 563.484 285.469C562.203 283.479 561.562 280.443 561.562 276.359C561.562 272.286 562.203 269.25 563.484 267.25C564.776 265.25 566.734 264.25 569.359 264.25C571.995 264.25 573.953 265.25 575.234 267.25C576.526 269.25 577.172 272.286 577.172 276.359ZM590.891 276.984C591.703 277.193 592.396 277.589 592.969 278.172C593.542 278.745 594.255 279.896 595.109 281.625L598.281 288H594.891L592.109 282.109C591.307 280.432 590.583 279.354 589.938 278.875C589.302 278.385 588.469 278.141 587.438 278.141H584.422V288H581.25V264.672H587.75C590.312 264.672 592.276 265.25 593.641 266.406C595.005 267.562 595.688 269.234 595.688 271.422C595.688 272.964 595.266 274.224 594.422 275.203C593.589 276.172 592.411 276.766 590.891 276.984ZM584.422 267.266V275.547H587.875C589.385 275.547 590.51 275.208 591.25 274.531C591.99 273.854 592.359 272.818 592.359 271.422C592.359 270.078 591.964 269.052 591.172 268.344C590.391 267.625 589.25 267.266 587.75 267.266H584.422ZM615.547 286.078C614.703 286.859 613.75 287.453 612.688 287.859C611.635 288.255 610.495 288.453 609.266 288.453C606.307 288.453 604.005 287.396 602.359 285.281C600.714 283.156 599.891 280.182 599.891 276.359C599.891 272.547 600.724 269.578 602.391 267.453C604.057 265.318 606.375 264.25 609.344 264.25C610.323 264.25 611.26 264.391 612.156 264.672C613.052 264.943 613.917 265.359 614.75 265.922V269.156C613.906 268.354 613.042 267.766 612.156 267.391C611.271 267.005 610.333 266.812 609.344 266.812C607.292 266.812 605.75 267.609 604.719 269.203C603.698 270.786 603.188 273.172 603.188 276.359C603.188 279.599 603.682 282 604.672 283.562C605.672 285.115 607.203 285.891 609.266 285.891C609.964 285.891 610.573 285.812 611.094 285.656C611.625 285.49 612.104 285.234 612.531 284.891V278.625H609.141V276.031H615.547V286.078ZM627.203 267.453L623.875 279.391H630.531L627.203 267.453ZM625.297 264.672H629.125L636.266 288H633L631.281 281.922H623.109L621.422 288H618.156L625.297 264.672ZM637.156 264.75H641.469L650.594 283.891V264.75H653.953V288H649.641L640.516 268.859V288H637.156V264.75ZM659.281 264.672H672.234V267.328H667.344V285.344H672.234V288H659.281V285.344H664.172V267.328H659.281V264.672ZM691.234 265.469V268.672C690.276 268.057 689.312 267.594 688.344 267.281C687.385 266.969 686.417 266.812 685.438 266.812C683.948 266.812 682.771 267.161 681.906 267.859C681.042 268.547 680.609 269.479 680.609 270.656C680.609 271.688 680.891 272.474 681.453 273.016C682.026 273.557 683.089 274.01 684.641 274.375L686.297 274.75C688.484 275.26 690.078 276.062 691.078 277.156C692.078 278.25 692.578 279.74 692.578 281.625C692.578 283.844 691.891 285.536 690.516 286.703C689.141 287.87 687.141 288.453 684.516 288.453C683.422 288.453 682.323 288.333 681.219 288.094C680.115 287.865 679.005 287.516 677.891 287.047V283.688C679.089 284.448 680.219 285.005 681.281 285.359C682.354 285.714 683.432 285.891 684.516 285.891C686.109 285.891 687.349 285.536 688.234 284.828C689.12 284.109 689.562 283.109 689.562 281.828C689.562 280.661 689.255 279.771 688.641 279.156C688.036 278.542 686.979 278.068 685.469 277.734L683.781 277.344C681.615 276.854 680.042 276.115 679.062 275.125C678.083 274.135 677.594 272.807 677.594 271.141C677.594 269.057 678.292 267.391 679.688 266.141C681.094 264.88 682.958 264.25 685.281 264.25C686.177 264.25 687.12 264.354 688.109 264.562C689.099 264.76 690.141 265.062 691.234 265.469ZM695.266 264.75H699.484L703.516 276.594L707.578 264.75H711.812V288H708.891V267.453L704.734 279.703H702.344L698.172 267.453V288H695.266V264.75ZM729.797 265.469V268.672C728.839 268.057 727.875 267.594 726.906 267.281C725.948 266.969 724.979 266.812 724 266.812C722.51 266.812 721.333 267.161 720.469 267.859C719.604 268.547 719.172 269.479 719.172 270.656C719.172 271.688 719.453 272.474 720.016 273.016C720.589 273.557 721.651 274.01 723.203 274.375L724.859 274.75C727.047 275.26 728.641 276.062 729.641 277.156C730.641 278.25 731.141 279.74 731.141 281.625C731.141 283.844 730.453 285.536 729.078 286.703C727.703 287.87 725.703 288.453 723.078 288.453C721.984 288.453 720.885 288.333 719.781 288.094C718.677 287.865 717.568 287.516 716.453 287.047V283.688C717.651 284.448 718.781 285.005 719.844 285.359C720.917 285.714 721.995 285.891 723.078 285.891C724.672 285.891 725.911 285.536 726.797 284.828C727.682 284.109 728.125 283.109 728.125 281.828C728.125 280.661 727.818 279.771 727.203 279.156C726.599 278.542 725.542 278.068 724.031 277.734L722.344 277.344C720.177 276.854 718.604 276.115 717.625 275.125C716.646 274.135 716.156 272.807 716.156 271.141C716.156 269.057 716.854 267.391 718.25 266.141C719.656 264.88 721.521 264.25 723.844 264.25C724.74 264.25 725.682 264.354 726.672 264.562C727.661 264.76 728.703 265.062 729.797 265.469Z" fill="#8591B0"/>
<path d="M858.469 264.672H876.266V267.328H868.969V288H865.797V267.328H858.469V264.672ZM880.094 264.672H893.938V267.328H883.25V273.609H893.469V276.266H883.25V285.344H894.234V288H880.094V264.672ZM896.859 264.75H901.078L905.109 276.594L909.172 264.75H913.406V288H910.484V267.453L906.328 279.703H903.938L899.766 267.453V288H896.859V264.75ZM921.812 267.266V276.031H925.469C926.927 276.031 928.062 275.646 928.875 274.875C929.698 274.104 930.109 273.026 930.109 271.641C930.109 270.255 929.703 269.182 928.891 268.422C928.078 267.651 926.938 267.266 925.469 267.266H921.812ZM918.656 264.672H925.469C928.073 264.672 930.047 265.266 931.391 266.453C932.734 267.63 933.406 269.359 933.406 271.641C933.406 273.943 932.734 275.682 931.391 276.859C930.057 278.036 928.083 278.625 925.469 278.625H921.812V288H918.656V264.672ZM938.219 264.672H941.391V285.344H952.656V288H938.219V264.672ZM963.766 267.453L960.438 279.391H967.094L963.766 267.453ZM961.859 264.672H965.688L972.828 288H969.562L967.844 281.922H959.672L957.984 288H954.719L961.859 264.672ZM974.156 264.672H991.953V267.328H984.656V288H981.484V267.328H974.156V264.672ZM995.781 264.672H1009.62V267.328H998.938V273.609H1009.16V276.266H998.938V285.344H1009.92V288H995.781V264.672ZM1027.8 265.469V268.672C1026.84 268.057 1025.88 267.594 1024.91 267.281C1023.95 266.969 1022.98 266.812 1022 266.812C1020.51 266.812 1019.33 267.161 1018.47 267.859C1017.6 268.547 1017.17 269.479 1017.17 270.656C1017.17 271.688 1017.45 272.474 1018.02 273.016C1018.59 273.557 1019.65 274.01 1021.2 274.375L1022.86 274.75C1025.05 275.26 1026.64 276.062 1027.64 277.156C1028.64 278.25 1029.14 279.74 1029.14 281.625C1029.14 283.844 1028.45 285.536 1027.08 286.703C1025.7 287.87 1023.7 288.453 1021.08 288.453C1019.98 288.453 1018.89 288.333 1017.78 288.094C1016.68 287.865 1015.57 287.516 1014.45 287.047V283.688C1015.65 284.448 1016.78 285.005 1017.84 285.359C1018.92 285.714 1019.99 285.891 1021.08 285.891C1022.67 285.891 1023.91 285.536 1024.8 284.828C1025.68 284.109 1026.12 283.109 1026.12 281.828C1026.12 280.661 1025.82 279.771 1025.2 279.156C1024.6 278.542 1023.54 278.068 1022.03 277.734L1020.34 277.344C1018.18 276.854 1016.6 276.115 1015.62 275.125C1014.65 274.135 1014.16 272.807 1014.16 271.141C1014.16 269.057 1014.85 267.391 1016.25 266.141C1017.66 264.88 1019.52 264.25 1021.84 264.25C1022.74 264.25 1023.68 264.354 1024.67 264.562C1025.66 264.76 1026.7 265.062 1027.8 265.469Z" fill="#8591B0"/>
<path d="M1195.53 267.266V276.031H1199.19C1200.65 276.031 1201.78 275.646 1202.59 274.875C1203.42 274.104 1203.83 273.026 1203.83 271.641C1203.83 270.255 1203.42 269.182 1202.61 268.422C1201.8 267.651 1200.66 267.266 1199.19 267.266H1195.53ZM1192.38 264.672H1199.19C1201.79 264.672 1203.77 265.266 1205.11 266.453C1206.45 267.63 1207.12 269.359 1207.12 271.641C1207.12 273.943 1206.45 275.682 1205.11 276.859C1203.78 278.036 1201.8 278.625 1199.19 278.625H1195.53V288H1192.38V264.672ZM1218.2 267.453L1214.88 279.391H1221.53L1218.2 267.453ZM1216.3 264.672H1220.12L1227.27 288H1224L1222.28 281.922H1214.11L1212.42 288H1209.16L1216.3 264.672ZM1245.11 286.078C1244.27 286.859 1243.31 287.453 1242.25 287.859C1241.2 288.255 1240.06 288.453 1238.83 288.453C1235.87 288.453 1233.57 287.396 1231.92 285.281C1230.28 283.156 1229.45 280.182 1229.45 276.359C1229.45 272.547 1230.29 269.578 1231.95 267.453C1233.62 265.318 1235.94 264.25 1238.91 264.25C1239.89 264.25 1240.82 264.391 1241.72 264.672C1242.61 264.943 1243.48 265.359 1244.31 265.922V269.156C1243.47 268.354 1242.6 267.766 1241.72 267.391C1240.83 267.005 1239.9 266.812 1238.91 266.812C1236.85 266.812 1235.31 267.609 1234.28 269.203C1233.26 270.786 1232.75 273.172 1232.75 276.359C1232.75 279.599 1233.24 282 1234.23 283.562C1235.23 285.115 1236.77 285.891 1238.83 285.891C1239.53 285.891 1240.14 285.812 1240.66 285.656C1241.19 285.49 1241.67 285.234 1242.09 284.891V278.625H1238.7V276.031H1245.11V286.078ZM1250.22 264.672H1264.06V267.328H1253.38V273.609H1263.59V276.266H1253.38V285.344H1264.36V288H1250.22V264.672ZM1282.23 265.469V268.672C1281.28 268.057 1280.31 267.594 1279.34 267.281C1278.39 266.969 1277.42 266.812 1276.44 266.812C1274.95 266.812 1273.77 267.161 1272.91 267.859C1272.04 268.547 1271.61 269.479 1271.61 270.656C1271.61 271.688 1271.89 272.474 1272.45 273.016C1273.03 273.557 1274.09 274.01 1275.64 274.375L1277.3 274.75C1279.48 275.26 1281.08 276.062 1282.08 277.156C1283.08 278.25 1283.58 279.74 1283.58 281.625C1283.58 283.844 1282.89 285.536 1281.52 286.703C1280.14 287.87 1278.14 288.453 1275.52 288.453C1274.42 288.453 1273.32 288.333 1272.22 288.094C1271.11 287.865 1270.01 287.516 1268.89 287.047V283.688C1270.09 284.448 1271.22 285.005 1272.28 285.359C1273.35 285.714 1274.43 285.891 1275.52 285.891C1277.11 285.891 1278.35 285.536 1279.23 284.828C1280.12 284.109 1280.56 283.109 1280.56 281.828C1280.56 280.661 1280.26 279.771 1279.64 279.156C1279.04 278.542 1277.98 278.068 1276.47 277.734L1274.78 277.344C1272.61 276.854 1271.04 276.115 1270.06 275.125C1269.08 274.135 1268.59 272.807 1268.59 271.141C1268.59 269.057 1269.29 267.391 1270.69 266.141C1272.09 264.88 1273.96 264.25 1276.28 264.25C1277.18 264.25 1278.12 264.354 1279.11 264.562C1280.1 264.76 1281.14 265.062 1282.23 265.469Z" fill="#8591B0"/>
<path d="M33.4219 267.453L30.0938 279.391H36.75L33.4219 267.453ZM31.5156 264.672H35.3438L42.4844 288H39.2188L37.5 281.922H29.3281L27.6406 288H24.375L31.5156 264.672ZM43.8125 264.672H61.6094V267.328H54.3125V288H51.1406V267.328H43.8125V264.672ZM76.5 276.359C76.5 272.932 76.1458 270.484 75.4375 269.016C74.7396 267.547 73.5885 266.812 71.9844 266.812C70.3906 266.812 69.2396 267.547 68.5312 269.016C67.8333 270.484 67.4844 272.932 67.4844 276.359C67.4844 279.776 67.8333 282.219 68.5312 283.688C69.2396 285.156 70.3906 285.891 71.9844 285.891C73.5885 285.891 74.7396 285.161 75.4375 283.703C76.1458 282.234 76.5 279.786 76.5 276.359ZM79.7969 276.359C79.7969 280.422 79.151 283.453 77.8594 285.453C76.5781 287.453 74.6198 288.453 71.9844 288.453C69.349 288.453 67.3906 287.458 66.1094 285.469C64.8281 283.479 64.1875 280.443 64.1875 276.359C64.1875 272.286 64.8281 269.25 66.1094 267.25C67.401 265.25 69.3594 264.25 71.9844 264.25C74.6198 264.25 76.5781 265.25 77.8594 267.25C79.151 269.25 79.7969 272.286 79.7969 276.359ZM82.2031 264.75H86.4219L90.4531 276.594L94.5156 264.75H98.75V288H95.8281V267.453L91.6719 279.703H89.2812L85.1094 267.453V288H82.2031V264.75ZM116.734 265.469V268.672C115.776 268.057 114.812 267.594 113.844 267.281C112.885 266.969 111.917 266.812 110.938 266.812C109.448 266.812 108.271 267.161 107.406 267.859C106.542 268.547 106.109 269.479 106.109 270.656C106.109 271.688 106.391 272.474 106.953 273.016C107.526 273.557 108.589 274.01 110.141 274.375L111.797 274.75C113.984 275.26 115.578 276.062 116.578 277.156C117.578 278.25 118.078 279.74 118.078 281.625C118.078 283.844 117.391 285.536 116.016 286.703C114.641 287.87 112.641 288.453 110.016 288.453C108.922 288.453 107.823 288.333 106.719 288.094C105.615 287.865 104.505 287.516 103.391 287.047V283.688C104.589 284.448 105.719 285.005 106.781 285.359C107.854 285.714 108.932 285.891 110.016 285.891C111.609 285.891 112.849 285.536 113.734 284.828C114.62 284.109 115.062 283.109 115.062 281.828C115.062 280.661 114.755 279.771 114.141 279.156C113.536 278.542 112.479 278.068 110.969 277.734L109.281 277.344C107.115 276.854 105.542 276.115 104.562 275.125C103.583 274.135 103.094 272.807 103.094 271.141C103.094 269.057 103.792 267.391 105.188 266.141C106.594 264.88 108.458 264.25 110.781 264.25C111.677 264.25 112.62 264.354 113.609 264.562C114.599 264.76 115.641 265.062 116.734 265.469Z" fill="#8591B0"/>
<path fill-rule="evenodd" clip-rule="evenodd" d="M192.645 120.256L206.695 134.225C207.102 134.634 207.102 135.315 206.695 135.724L192.645 149.693C192.238 150.102 191.559 150.102 191.152 149.693L189.658 148.194C189.251 147.785 189.251 147.104 189.658 146.695L200.722 135.724C201.129 135.315 201.129 134.634 200.722 134.225L189.726 123.254C189.319 122.845 189.319 122.164 189.726 121.755L191.219 120.256C191.627 119.915 192.238 119.915 192.645 120.256Z" fill="#8591B0"/>
<path fill-rule="evenodd" clip-rule="evenodd" d="M192.645 120.256L206.695 134.225C207.102 134.634 207.102 135.315 206.695 135.724L192.645 149.693C192.238 150.102 191.559 150.102 191.152 149.693L189.658 148.194C189.251 147.785 189.251 147.104 189.658 146.695L200.722 135.724C201.129 135.315 201.129 134.634 200.722 134.225L189.726 123.254C189.319 122.845 189.319 122.164 189.726 121.755L191.219 120.256C191.627 119.915 192.238 119.915 192.645 120.256Z" fill="#8591B0"/>
<path fill-rule="evenodd" clip-rule="evenodd" d="M479.645 120.256L493.695 134.225C494.102 134.634 494.102 135.315 493.695 135.724L479.645 149.693C479.238 150.102 478.559 150.102 478.152 149.693L476.658 148.194C476.251 147.785 476.251 147.104 476.658 146.695L487.722 135.724C488.129 135.315 488.129 134.634 487.722 134.225L476.726 123.254C476.319 122.845 476.319 122.164 476.726 121.755L478.219 120.256C478.627 119.915 479.238 119.915 479.645 120.256Z" fill="#8591B0"/>
<path fill-rule="evenodd" clip-rule="evenodd" d="M479.645 120.256L493.695 134.225C494.102 134.634 494.102 135.315 493.695 135.724L479.645 149.693C479.238 150.102 478.559 150.102 478.152 149.693L476.658 148.194C476.251 147.785 476.251 147.104 476.658 146.695L487.722 135.724C488.129 135.315 488.129 134.634 487.722 134.225L476.726 123.254C476.319 122.845 476.319 122.164 476.726 121.755L478.219 120.256C478.627 119.915 479.238 119.915 479.645 120.256Z" fill="#8591B0"/>
<path fill-rule="evenodd" clip-rule="evenodd" d="M802.645 120.256L816.695 134.225C817.102 134.634 817.102 135.315 816.695 135.724L802.645 149.693C802.238 150.102 801.559 150.102 801.152 149.693L799.658 148.194C799.251 147.785 799.251 147.104 799.658 146.695L810.722 135.724C811.129 135.315 811.129 134.634 810.722 134.225L799.726 123.254C799.319 122.845 799.319 122.164 799.726 121.755L801.219 120.256C801.627 119.915 802.238 119.915 802.645 120.256Z" fill="#8591B0"/>
<path fill-rule="evenodd" clip-rule="evenodd" d="M802.645 120.256L816.695 134.225C817.102 134.634 817.102 135.315 816.695 135.724L802.645 149.693C802.238 150.102 801.559 150.102 801.152 149.693L799.658 148.194C799.251 147.785 799.251 147.104 799.658 146.695L810.722 135.724C811.129 135.315 811.129 134.634 810.722 134.225L799.726 123.254C799.319 122.845 799.319 122.164 799.726 121.755L801.219 120.256C801.627 119.915 802.238 119.915 802.645 120.256Z" fill="#8591B0"/>
<path fill-rule="evenodd" clip-rule="evenodd" d="M1076.64 120.256L1090.69 134.225C1091.1 134.634 1091.1 135.315 1090.69 135.724L1076.64 149.693C1076.24 150.102 1075.56 150.102 1075.15 149.693L1073.66 148.194C1073.25 147.785 1073.25 147.104 1073.66 146.695L1084.72 135.724C1085.13 135.315 1085.13 134.634 1084.72 134.225L1073.73 123.254C1073.32 122.845 1073.32 122.164 1073.73 121.755L1075.22 120.256C1075.63 119.915 1076.24 119.915 1076.64 120.256Z" fill="#8591B0"/>
<path fill-rule="evenodd" clip-rule="evenodd" d="M1076.64 120.256L1090.69 134.225C1091.1 134.634 1091.1 135.315 1090.69 135.724L1076.64 149.693C1076.24 150.102 1075.56 150.102 1075.15 149.693L1073.66 148.194C1073.25 147.785 1073.25 147.104 1073.66 146.695L1084.72 135.724C1085.13 135.315 1085.13 134.634 1084.72 134.225L1073.73 123.254C1073.32 122.845 1073.32 122.164 1073.73 121.755L1075.22 120.256C1075.63 119.915 1076.24 119.915 1076.64 120.256Z" fill="#8591B0"/>
<path fill-rule="evenodd" clip-rule="evenodd" d="M107.787 72.5659C97.2421 66.4802 85.0179 63 71.9837 63C32.2232 63 0 95.3852 0 135.323C0 175.261 32.2232 207.646 71.9837 207.646C111.744 207.646 143.967 175.261 143.967 135.323C143.967 121.736 140.238 109.024 133.752 98.1631C132.895 99.7516 131.792 101.241 130.441 102.575C128.175 104.839 125.493 106.415 122.649 107.303C127.205 115.612 129.797 125.163 129.797 135.323C129.797 167.431 103.908 193.45 71.9837 193.45C40.0592 193.45 14.17 167.431 14.17 135.323C14.17 103.215 40.0592 77.196 71.9837 77.196C81.652 77.196 90.7667 79.5824 98.7765 83.8016C99.6478 80.8598 101.252 78.0824 103.59 75.7464C104.872 74.4662 106.286 73.406 107.787 72.5659Z" fill="#297BCC" fill-opacity="0.5"/>
<path fill-rule="evenodd" clip-rule="evenodd" d="M71.9837 172.92C92.6441 172.92 109.393 156.087 109.393 135.323C109.393 114.559 92.6441 97.7261 71.9837 97.7261C51.3234 97.7261 34.5749 114.559 34.5749 135.323C34.5749 156.087 51.3234 172.92 71.9837 172.92Z" fill="#22B1FF"/>
<path fill-rule="evenodd" clip-rule="evenodd" d="M128.451 100.574C122.216 106.841 112.227 106.841 105.992 100.574C99.757 94.3082 99.757 84.2681 105.992 78.0019C112.227 71.7357 122.216 71.7357 128.451 78.0019C134.615 84.1968 134.686 94.3794 128.451 100.574Z" fill="#297BCC"/>
<g opacity="0.2">
<rect x="867" y="50" width="74.6667" height="96" rx="6" fill="#22B1FF"/>
<rect x="867" y="157" width="74.6667" height="53.3333" rx="6" fill="#297BCC"/>
<rect x="1027.67" y="210.333" width="74.6667" height="96" rx="6" transform="rotate(180 1027.67 210.333)" fill="#22B1FF"/>
<rect x="1027.67" y="103.333" width="74.6667" height="53.3333" rx="6" transform="rotate(180 1027.67 103.333)" fill="#297BCC"/>
</g>
<rect x="862" y="55" width="74.6667" height="96" rx="6" stroke="#22B1FF" stroke-width="2" stroke-linecap="round" stroke-dasharray="5 5"/>
<rect x="862" y="162" width="74.6667" height="53.3333" rx="6" stroke="#297BCC" stroke-width="2" stroke-linecap="round" stroke-dasharray="5 5"/>
<rect x="1022.67" y="215.333" width="74.6667" height="96" rx="6" transform="rotate(180 1022.67 215.333)" stroke="#22B1FF" stroke-width="2" stroke-linecap="round" stroke-dasharray="5 5"/>
<rect x="1022.67" y="108.333" width="74.6667" height="53.3333" rx="6" transform="rotate(180 1022.67 108.333)" stroke="#297BCC" stroke-width="2" stroke-linecap="round" stroke-dasharray="5 5"/>
<path d="M1142 217C1138.69 217 1136 214.314 1136 211L1136 74L1336 74L1336 211C1336 214.314 1333.31 217 1330 217L1142 217Z" fill="white" fill-opacity="0.2"/>
<path fill-rule="evenodd" clip-rule="evenodd" d="M1136 58V72L1336 72V58C1336 54.6863 1333.31 52 1330 52L1142 52C1138.69 52 1136 54.6863 1136 58ZM1145.98 65C1147.62 65 1148.95 63.6569 1148.95 62C1148.95 60.3431 1147.62 59 1145.98 59C1144.33 59 1143 60.3431 1143 62C1143 63.6569 1144.33 65 1145.98 65ZM1155.5 65C1157.14 65 1158.48 63.6569 1158.48 62C1158.48 60.3431 1157.14 59 1155.5 59C1153.86 59 1152.52 60.3431 1152.52 62C1152.52 63.6569 1153.86 65 1155.5 65ZM1168 62C1168 63.6569 1166.67 65 1165.02 65C1163.38 65 1162.05 63.6569 1162.05 62C1162.05 60.3431 1163.38 59 1165.02 59C1166.67 59 1168 60.3431 1168 62Z" fill="#297BCC" fill-opacity="0.5"/>
<rect x="1151" y="84" width="50" height="83" rx="4" fill="#22B1FF"/>
<path d="M1151 181C1151 178.791 1152.79 177 1155 177H1197C1199.21 177 1201 178.791 1201 181V217H1151V181Z" fill="#297BCC"/>
<rect x="1271" y="84" width="50" height="83" rx="4" fill="#22B1FF"/>
<path d="M1271 181C1271 178.791 1272.79 177 1275 177H1317C1319.21 177 1321 178.791 1321 181V217H1271V181Z" fill="#297BCC"/>
<rect x="1261" y="214" width="50" height="80" rx="4" transform="rotate(-180 1261 214)" fill="#22B1FF"/>
<path d="M1261 120C1261 122.209 1259.21 124 1257 124L1215 124C1212.79 124 1211 122.209 1211 120L1211 88C1211 85.7909 1212.79 84 1215 84L1257 84C1259.21 84 1261 85.7909 1261 88L1261 120Z" fill="#297BCC"/>
</svg>
