<svg width="60" height="60" viewBox="0 0 60 60" fill="none" xmlns="http://www.w3.org/2000/svg">
<g id="Figma">
<g id="Color">
<g id="Taobao">
<g id="back">
<g id="path0_fill-link">
<path id="path0_fill" d="M0 30C0 13.4315 13.4315 0 30 0C46.5685 0 60 13.4315 60 30C60 46.5685 46.5685 60 30 60C13.4315 60 0 46.5685 0 30Z" fill="#333333"/>
</g>
</g>
</g>
</g>
<g id="Group">
<g id="5">
<g id="path1_fill-link">
<path id="path1_fill" d="M24 48C27.3137 48 30 45.3137 30 42V36H24C20.6863 36 18 38.6863 18 42C18 45.3137 20.6863 48 24 48Z" fill="#0ACF83"/>
</g>
</g>
<g id="4">
<g id="path2_fill-link">
<path id="path2_fill" d="M18 30C18 26.6863 20.6863 24 24 24H30V36H24C20.6863 36 18 33.3137 18 30Z" fill="#A259FF"/>
</g>
</g>
<g id="3">
<g id="path2_fill-link_2">
<path id="path2_fill_2" d="M18 18C18 14.6863 20.6863 12 24 12H30V24H24C20.6863 24 18 21.3137 18 18Z" fill="#F24E1E"/>
</g>
</g>
<g id="2">
<g id="path3_fill-link">
<path id="path3_fill" d="M30 12H36C39.3137 12 42 14.6863 42 18C42 21.3137 39.3137 24 36 24H30V12Z" fill="#FF7262"/>
</g>
</g>
<g id="1">
<g id="path4_fill-link">
<path id="path4_fill" d="M42 30C42 33.3137 39.3137 36 36 36C32.6863 36 30 33.3137 30 30C30 26.6863 32.6863 24 36 24C39.3137 24 42 26.6863 42 30Z" fill="#1ABCFE"/>
</g>
</g>
</g>
</g>
</svg>
