<svg width="50" height="50" viewBox="0 0 50 50" fill="none" xmlns="http://www.w3.org/2000/svg">
<path fill-rule="evenodd" clip-rule="evenodd" d="M36.75 37.125H6V13.625H36.75V37.125ZM43.5 37.125H39.25V16.5782C39.25 16.5782 39.255 16.4945 39.265 16.4532C39.275 16.406 39.29 16.3608 39.3075 16.3163C39.31 16.3055 39.31 16.3055 39.3125 16.295C39.3175 16.2845 39.3175 16.2845 39.3225 16.2742L41.3725 12C42.0575 13.4247 42.74 14.8495 43.425 16.2742C43.4425 16.316 43.46 16.3582 43.4725 16.4025C43.49 16.4657 43.5 16.5308 43.5 16.5963V37.125ZM42.75 35.625H40V36.3788H42.75V35.625ZM36 14.375H6.75V36.375H13.705C13.7225 35.3587 13.8325 34.3443 14.03 33.3475C14.345 31.7603 14.8875 30.2195 15.6325 28.784C15.78 28.5037 15.9325 28.2275 16.095 27.9557L15.9275 28.1175L15.405 27.58L15.9425 27.057L16.3725 27.5002C16.5125 27.2815 16.6575 27.0657 16.805 26.8535C16.7475 26.81 16.69 26.7635 16.6375 26.714C16.4625 26.5498 16.315 26.3543 16.2075 26.1385C16.1175 25.9548 16.055 25.7573 16.0225 25.5545C15.99 25.3448 15.9925 25.13 16.0275 24.9207C16.0575 24.7347 16.115 24.5533 16.1975 24.3833C16.3925 23.977 16.7275 23.6432 17.1325 23.4472C17.3025 23.3655 17.485 23.308 17.67 23.277C17.7625 23.2617 17.855 23.2535 17.9475 23.2507C17.975 23.2502 18 23.25 18.025 23.2502C18.12 23.252 18.2125 23.259 18.305 23.273C18.49 23.3017 18.6725 23.357 18.845 23.437C19.0725 23.5432 19.2775 23.6927 19.45 23.8745C19.6375 23.7085 19.825 23.5468 20.0175 23.389L19.75 23.1138L20.2875 22.5907L20.6125 22.924C20.815 22.7725 21.02 22.6255 21.23 22.483L20.825 22.0677L21.3625 21.5448L21.87 22.0663C22.53 21.658 23.2175 21.294 23.925 20.9785C25.3475 20.3452 26.8575 19.9082 28.3975 19.6825C28.9375 19.6032 29.48 19.55 30.025 19.5225C30.32 19.5075 30.615 19.501 30.91 19.5C30.9825 19.5002 31.0575 19.5007 31.1325 19.5015C31.425 19.506 31.72 19.5163 32.015 19.535C32.5575 19.5695 33.0975 19.6295 33.635 19.715C34.435 19.8427 35.225 20.0275 36 20.267V14.375ZM31.0175 20.2502H30.8025C30.5225 20.253 30.24 20.261 29.9575 20.277C29.4375 20.3067 28.92 20.361 28.405 20.4397C26.935 20.6647 25.495 21.0912 24.14 21.7047C22.5775 22.411 21.13 23.3638 19.86 24.5148C19.9025 24.6225 19.935 24.7337 19.96 24.8472C20.0025 25.063 20.0125 25.286 19.985 25.5045C19.9575 25.7088 19.9 25.9085 19.8125 26.0948C19.71 26.3133 19.57 26.5125 19.3975 26.6808C19.2175 26.855 19.0075 26.9955 18.7775 27.0927C18.54 27.1932 18.2825 27.2465 18.025 27.2498C17.845 27.2523 17.665 27.23 17.49 27.184C17.0675 27.777 16.685 28.398 16.345 29.042C15.6075 30.4395 15.0725 31.9433 14.765 33.4933C14.5775 34.4423 14.4725 35.4077 14.455 36.375H36V21.0538C35.1575 20.7795 34.2925 20.574 33.415 20.4397C32.9 20.361 32.3825 20.3067 31.8625 20.277C31.58 20.261 31.2975 20.253 31.0175 20.2502ZM42.75 17.375H40V34.875H42.75V17.375ZM10.015 33.8707L9.47751 34.3938L8.95499 33.8562L9.48999 33.3333C9.66499 33.5125 9.84001 33.6915 10.015 33.8707ZM11.09 32.8248L10.5525 33.3477L10.03 32.8103L10.5675 32.2872C10.74 32.4662 10.915 32.6455 11.09 32.8248ZM12.165 31.7787L11.6275 32.3017L11.105 31.7643L11.6425 31.2413C11.815 31.4203 11.99 31.5995 12.165 31.7787ZM13.24 30.7328L12.7025 31.2558L12.18 30.7182L12.7175 30.195C12.89 30.3743 13.065 30.5535 13.24 30.7328ZM14.315 29.6865L13.7775 30.2097L13.255 29.672L13.7925 29.149C13.965 29.3283 14.14 29.5075 14.315 29.6865ZM15.39 28.6405L14.8525 29.1635L14.33 28.626L14.8675 28.103C15.04 28.2822 15.215 28.4615 15.39 28.6405ZM17.4475 27.1725L17.445 27.172L17.4475 27.1725ZM17.4325 27.1682L17.435 27.1687L17.4325 27.1678V27.1682ZM17.42 27.1642V27.1647L17.4175 27.1638L17.42 27.1642ZM17.405 27.1597V27.16V27.1597ZM17.3925 27.1555L17.39 27.1548L17.3925 27.1555ZM17.3775 27.151L17.38 27.1515L17.375 27.15L17.3775 27.151ZM17.3625 27.1463L17.365 27.147L17.36 27.1458L17.3625 27.1463ZM17.35 27.1415L17.3525 27.1425L17.3475 27.1412L17.35 27.1415ZM17.335 27.1367L17.3375 27.1373L17.335 27.1367ZM17.3225 27.132V27.1322L17.32 27.1308L17.3225 27.132ZM17.3075 27.1268L17.31 27.1275L17.305 27.1257L17.3075 27.1268ZM17.295 27.1217L17.2975 27.1228L17.2925 27.121L17.295 27.1217ZM17.28 27.1165L17.2825 27.1178L17.28 27.116V27.1165ZM17.2525 27.105V27.1057L17.25 27.1042L17.2525 27.105ZM17.235 27.0988L17.2375 27.0995L17.235 27.0985V27.0988ZM17.22 27.0923L17.2225 27.0927L17.22 27.0915V27.0923ZM17.205 27.0858L17.2075 27.0867L17.205 27.0852V27.0858ZM17.19 27.0793V27.0785V27.0793ZM17.175 27.0722L17.1775 27.0733L17.1725 27.0715L17.175 27.0722ZM17.16 27.0655L17.1625 27.066L17.16 27.0652V27.0655ZM17.145 27.0582L17.1475 27.059L17.1425 27.0573L17.145 27.0582ZM17.13 27.0513L17.1325 27.0522L17.13 27.0507V27.0513ZM17.115 27.044V27.0442L17.1125 27.043L17.115 27.044ZM17.1 27.0365L17.1025 27.0375L17.1 27.0358V27.0365ZM17.0725 27.0213V27.022L17.07 27.0202L17.0725 27.0213ZM17.0575 27.0135V27.0143L17.055 27.0132L17.0575 27.0135ZM17.0425 27.0055V27.0063L17.04 27.0045L17.0425 27.0055ZM17.0275 26.9975L17.03 26.9987L17.0275 26.997V26.9975ZM17.0125 26.9895V26.9888V26.9895ZM16.9975 26.9812L17 26.982L16.9975 26.9803V26.9812ZM16.985 26.9727V26.973V26.9727ZM16.97 26.9642V26.965L16.9675 26.9633L16.97 26.9642ZM16.955 26.9557L16.9575 26.9565L16.955 26.9552V26.9557ZM16.9425 26.947V26.9472L16.94 26.9462L16.9425 26.947ZM16.9275 26.938L16.93 26.939L16.9275 26.9375V26.938ZM16.9 26.92V26.9207V26.9195V26.92ZM16.8725 26.9015V26.9017V26.901V26.9015ZM16.8575 26.8922L16.86 26.8925L16.8575 26.892V26.8922ZM16.8325 26.873V26.8732V26.8728V26.873ZM17.9825 24C17.8075 24.0035 17.6325 24.0415 17.4725 24.1165C17.23 24.2295 17.0275 24.4207 16.9 24.6552C16.845 24.7577 16.8025 24.8682 16.78 24.9825C16.7475 25.1275 16.7425 25.2785 16.7625 25.4255C16.78 25.547 16.815 25.666 16.8675 25.7773C16.93 25.914 17.02 26.0388 17.1275 26.1443C17.2375 26.2533 17.37 26.3412 17.515 26.402C17.6675 26.467 17.8325 26.5 18 26.5C18.1675 26.5 18.3325 26.467 18.485 26.402C18.63 26.3412 18.7625 26.2533 18.8725 26.1443C18.98 26.0388 19.07 25.914 19.1325 25.7773C19.185 25.666 19.22 25.547 19.2375 25.4255C19.2575 25.2785 19.2525 25.1275 19.2225 24.9825C19.1975 24.8682 19.155 24.7577 19.1 24.6552C18.9725 24.4207 18.77 24.2295 18.5275 24.1165C18.3675 24.0415 18.1925 24.0035 18.0175 24C18 24 18 24 17.9825 24ZM19.855 24.499L19.8575 24.5065L19.855 24.5007V24.499ZM19.8475 24.4832L19.85 24.4913V24.487L19.8475 24.4832ZM19.84 24.4673L19.845 24.4758L19.8425 24.473L19.84 24.4673ZM19.8325 24.448L19.8375 24.4605V24.4592L19.8325 24.448ZM19.825 24.4303L19.83 24.4427L19.825 24.4317V24.4303ZM19.8175 24.4147L19.8225 24.4245L19.82 24.418L19.8175 24.4147ZM19.81 24.399L19.815 24.4088L19.8125 24.4045L19.81 24.399ZM19.8025 24.382L19.8075 24.3932V24.3907L19.8025 24.382ZM19.785 24.3477L19.79 24.359L19.7875 24.3502L19.785 24.3477ZM19.7775 24.3325L19.7825 24.3425L19.78 24.337L19.7775 24.3325ZM19.77 24.3168L19.775 24.327L19.7725 24.3235L19.77 24.3168ZM19.7675 24.312C19.765 24.307 19.7625 24.302 19.7575 24.297L19.7675 24.312ZM19.74 24.2648L19.7475 24.2758L19.7425 24.2682L19.74 24.2648ZM19.73 24.2482L19.7375 24.2587L19.735 24.254L19.73 24.2482ZM19.72 24.231L19.7275 24.2428L19.725 24.2397L19.72 24.231ZM19.7 24.1955L19.7075 24.2075L19.7 24.1978V24.1955ZM19.69 24.1797L19.695 24.19L19.6925 24.1837L19.69 24.1797ZM19.68 24.1638L19.685 24.1738L19.6825 24.17L19.68 24.1638ZM19.6675 24.1458L19.675 24.1582V24.1562L19.6675 24.1458ZM19.645 24.1127L19.6525 24.1228L19.6475 24.1155L19.645 24.1127ZM19.635 24.0975L19.64 24.1067L19.6375 24.102L19.635 24.0975ZM19.6225 24.082L19.63 24.0915L19.6275 24.0887L19.6225 24.082ZM19.6075 24.0623L19.62 24.0765L19.6175 24.0755L19.6075 24.0623ZM19.5975 24.0477L19.605 24.0578L19.5975 24.0493V24.0477ZM19.5875 24.0332L19.5925 24.0412L19.59 24.036L19.5875 24.0332ZM19.575 24.0188L19.5825 24.0265L19.58 24.0233L19.575 24.0188ZM19.565 24.0043L19.57 24.0117V24.0103L19.565 24.0043ZM19.5375 23.9707L19.5425 23.977L19.5375 23.9722V23.9707ZM19.525 23.9572L19.53 23.9628L19.5275 23.9597L19.525 23.9572ZM19.515 23.944L19.5175 23.9487V23.9472L19.515 23.944ZM19.505 23.933V23.935V23.9348V23.933ZM19.4725 23.8975L19.475 23.9L19.4725 23.8983V23.8975ZM19.46 23.8853L19.4625 23.8873V23.8862L19.46 23.8853ZM22.9625 21.0363L22.4225 21.5592L21.9 21.0217L22.4375 20.4987C22.6125 20.6777 22.7875 20.857 22.9625 21.0363ZM24.035 19.9902L23.5 20.5132L22.975 19.9758L23.5125 19.4527C23.6875 19.6317 23.8625 19.811 24.035 19.9902ZM25.11 18.9442L24.575 19.4673L24.05 18.9297L24.5875 18.4068C24.7625 18.5858 24.9375 18.765 25.11 18.9442ZM26.1875 17.8983L25.65 18.4212L25.125 17.8835L25.6625 17.3605C25.8375 17.5398 26.0125 17.719 26.1875 17.8983ZM27.2625 16.852L26.725 17.3752L26.2 16.8375L26.7375 16.3145C26.9125 16.4937 27.0875 16.673 27.2625 16.852ZM42.75 16.625V16.6025L42.74 16.5785L42.7375 16.575L41.3725 13.7315C40.9225 14.6683 40.475 15.6047 40.025 16.5412V16.5443L40 16.6022V16.625H42.75Z" fill="#00B6E3"/>
</svg>
