<svg width="50" height="50" viewBox="0 0 50 50" fill="none" xmlns="http://www.w3.org/2000/svg">
<path fill-rule="evenodd" clip-rule="evenodd" d="M31.2813 11.625H44V39.375H31.2813V44H7V7H31.2813V11.625ZM30.5875 7.69375H7.69375V43.3063H30.5875V39.375H23.1875V35.4438H14.4V25.5H23.1875V11.625H30.5875V7.69375ZM43.3063 12.3188H23.8813V25.5H28.9688V35.4438H23.8813V38.6813H43.3063V12.3188ZM15.0938 26.1938V34.75H28.275V26.1938C23.8813 26.1938 19.4875 26.1938 15.0938 26.1938ZM23.8813 30.8188H19.4875V30.125H23.8813V30.8188ZM29.8938 14.6313H25.5V13.9375H29.8938V14.6313ZM13.7063 10.0063H9.3125V9.3125H13.7063V10.0063Z" fill="#00B6E3"/>
</svg>
