<svg width="50" height="50" viewBox="0 0 50 50" fill="none" xmlns="http://www.w3.org/2000/svg">
<path fill-rule="evenodd" clip-rule="evenodd" d="M40.2891 40.2971H34.0541V28.8198H40.2891V40.2971ZM34.3955 39.9571H39.9478V29.1599H34.3955V39.9571Z" fill="#00B6E3"/>
<path fill-rule="evenodd" clip-rule="evenodd" d="M41.1458 28.81H42Z" fill="#00B6E3"/>
<path fill-rule="evenodd" clip-rule="evenodd" d="M33.1978 28.81H32.3436Z" fill="#00B6E3"/>
<path fill-rule="evenodd" clip-rule="evenodd" d="M41.1458 40.2917H42Z" fill="#00B6E3"/>
<path fill-rule="evenodd" clip-rule="evenodd" d="M33.1978 40.2917H32.3436Z" fill="#00B6E3"/>
<path fill-rule="evenodd" clip-rule="evenodd" d="M34.0541 9.71816H40.2891V21.1955H34.0541V9.71816Z" fill="#00B6E3"/>
<path fill-rule="evenodd" clip-rule="evenodd" d="M40.2891 21.1955H34.0541V9.71816H40.2891V21.1955ZM34.3955 10.0582V20.8554H39.9478V10.0582H34.3955V10.0582Z" fill="#00B6E3"/>
<path fill-rule="evenodd" clip-rule="evenodd" d="M41.1458 9.70832H42Z" fill="#00B6E3"/>
<path fill-rule="evenodd" clip-rule="evenodd" d="M33.1978 9.70832H32.3436Z" fill="#00B6E3"/>
<path fill-rule="evenodd" clip-rule="evenodd" d="M41.1458 21.19H42Z" fill="#00B6E3"/>
<path fill-rule="evenodd" clip-rule="evenodd" d="M33.1978 21.19H32.3436Z" fill="#00B6E3"/>
<path fill-rule="evenodd" clip-rule="evenodd" d="M28.1175 40.2971H21.8825V28.8198H28.1175V40.2971ZM22.2239 39.9571H27.7761V29.1599H22.2239V39.9571Z" fill="#00B6E3"/>
<path fill-rule="evenodd" clip-rule="evenodd" d="M28.974 28.81H29.8282Z" fill="#00B6E3"/>
<path fill-rule="evenodd" clip-rule="evenodd" d="M21.0262 28.81H20.172Z" fill="#00B6E3"/>
<path fill-rule="evenodd" clip-rule="evenodd" d="M28.974 40.2917H29.8282Z" fill="#00B6E3"/>
<path fill-rule="evenodd" clip-rule="evenodd" d="M21.0262 40.2917H20.172Z" fill="#00B6E3"/>
<path fill-rule="evenodd" clip-rule="evenodd" d="M28.974 9.70832H29.8282Z" fill="#00B6E3"/>
<path fill-rule="evenodd" clip-rule="evenodd" d="M28.974 21.19H29.8282Z" fill="#00B6E3"/>
<path fill-rule="evenodd" clip-rule="evenodd" d="M15.9457 40.2971H9.71045V28.8198H15.9457V40.2971ZM15.6041 39.9571V29.1599H10.0518V39.9571H15.6041Z" fill="#00B6E3"/>
<path fill-rule="evenodd" clip-rule="evenodd" d="M16.8022 28.81H17.6564Z" fill="#00B6E3"/>
<path fill-rule="evenodd" clip-rule="evenodd" d="M8.85416 28.81H8Z" fill="#00B6E3"/>
<path fill-rule="evenodd" clip-rule="evenodd" d="M16.8022 40.2917H17.6564Z" fill="#00B6E3"/>
<path fill-rule="evenodd" clip-rule="evenodd" d="M8.85416 40.2917H8Z" fill="#00B6E3"/>
<path fill-rule="evenodd" clip-rule="evenodd" d="M28.1186 21.1955H9.71178V9.71816H28.1186V21.1955ZM10.0536 10.0582V20.8554H27.7768V10.0582H10.0536V10.0582Z" fill="#00B6E3"/>
<path fill-rule="evenodd" clip-rule="evenodd" d="M8.85416 9.70832H8Z" fill="#00B6E3"/>
<path fill-rule="evenodd" clip-rule="evenodd" d="M8.85416 21.19H8Z" fill="#00B6E3"/>
<path d="M40.2891 40.2971V40.4221H40.4141V40.2971H40.2891ZM34.0541 40.2971H33.9291V40.4221H34.0541V40.2971ZM34.0541 28.8198V28.6948H33.9291V28.8198H34.0541ZM40.2891 28.8198H40.4141V28.6948H40.2891V28.8198ZM34.3955 39.9571H34.2705V40.0821H34.3955V39.9571ZM39.9478 39.9571V40.0821H40.0728V39.9571H39.9478ZM39.9478 29.1599H40.0728V29.0349H39.9478V29.1599ZM34.3955 29.1599V29.0349H34.2705V29.1599H34.3955ZM34.0541 9.71816V9.59316H33.9291V9.71816H34.0541ZM40.2891 9.71816H40.4141V9.59316H40.2891V9.71816ZM40.2891 21.1955V21.3205H40.4141V21.1955H40.2891ZM34.0541 21.1955H33.9291V21.3205H34.0541V21.1955ZM34.3955 20.8554H34.2705V20.9804H34.3955V20.8554ZM39.9478 20.8554V20.9804H40.0728V20.8554H39.9478ZM39.9478 10.0582H40.0728V9.93324H39.9478V10.0582ZM34.3955 10.0582H34.2705V10.1832H34.3955V10.0582ZM28.1175 40.2971V40.4221H28.2425V40.2971H28.1175ZM21.8825 40.2971H21.7575V40.4221H21.8825V40.2971ZM21.8825 28.8198V28.6948H21.7575V28.8198H21.8825ZM28.1175 28.8198H28.2425V28.6948H28.1175V28.8198ZM22.2239 39.9571H22.0989V40.0821H22.2239V39.9571ZM27.7761 39.9571V40.0821H27.9011V39.9571H27.7761ZM27.7761 29.1599H27.9011V29.0349H27.7761V29.1599ZM22.2239 29.1599V29.0349H22.0989V29.1599H22.2239ZM15.9457 40.2971V40.4221H16.0707V40.2971H15.9457ZM9.71045 40.2971H9.58545V40.4221H9.71045V40.2971ZM9.71045 28.8198V28.6948H9.58545V28.8198H9.71045ZM15.9457 28.8198H16.0707V28.6948H15.9457V28.8198ZM15.6041 39.9571V40.0821H15.7291V39.9571H15.6041ZM15.6041 29.1599H15.7291V29.0349H15.6041V29.1599ZM10.0518 29.1599V29.0349H9.92681V29.1599H10.0518ZM10.0518 39.9571H9.92681V40.0821H10.0518V39.9571ZM28.1186 21.1955V21.3205H28.2436V21.1955H28.1186ZM9.71178 21.1955H9.58678V21.3205H9.71178V21.1955ZM9.71178 9.71816V9.59316H9.58678V9.71816H9.71178ZM28.1186 9.71816H28.2436V9.59316H28.1186V9.71816ZM10.0536 20.8554H9.92859V20.9804H10.0536V20.8554ZM27.7768 20.8554V20.9804H27.9018V20.8554H27.7768ZM27.7768 10.0582H27.9018V9.93324H27.7768V10.0582ZM10.0536 10.0582H9.92859V10.1832H10.0536V10.0582ZM40.2891 40.1721H34.0541V40.4221H40.2891V40.1721ZM34.1791 40.2971V28.8198H33.9291V40.2971H34.1791ZM34.0541 28.9448H40.2891V28.6948H34.0541V28.9448ZM40.1641 28.8198V40.2971H40.4141V28.8198H40.1641ZM34.3955 40.0821H39.9478V39.8321H34.3955V40.0821ZM40.0728 39.9571V29.1599H39.8228V39.9571H40.0728ZM39.9478 29.0349H34.3955V29.2849H39.9478V29.0349ZM34.2705 29.1599V39.9571H34.5205V29.1599H34.2705ZM40.4167 27.9558V27.1017H40.1667V27.9558H40.4167ZM41.1458 28.935H42V28.685H41.1458V28.935ZM34.177 27.9558V27.1017H33.927V27.9558H34.177ZM33.1978 28.685H32.3436V28.935H33.1978V28.685ZM40.1667 41.1458V42H40.4167V41.1458H40.1667ZM41.1458 40.4167H42V40.1667H41.1458V40.4167ZM33.927 41.1458V42H34.177V41.1458H33.927ZM33.1978 40.1667H32.3436V40.4167H33.1978V40.1667ZM34.0541 9.84316H40.2891V9.59316H34.0541V9.84316ZM40.1641 9.71816V21.1955H40.4141V9.71816H40.1641ZM40.2891 21.0705H34.0541V21.3205H40.2891V21.0705ZM34.1791 21.1955V9.71816H33.9291V21.1955H34.1791ZM34.2705 10.0582V20.8554H34.5205V10.0582H34.2705ZM34.3955 20.9804H39.9478V20.7304H34.3955V20.9804ZM40.0728 20.8554V10.0582H39.8228V20.8554H40.0728ZM39.9478 9.93324H34.3955V10.1832H39.9478V9.93324ZM34.5205 10.0582V10.0582H34.2705V10.0582H34.5205ZM40.4167 8.85416V8H40.1667V8.85416H40.4167ZM41.1458 9.83332H42V9.58332H41.1458V9.83332ZM34.177 8.85416V8H33.927V8.85416H34.177ZM33.1978 9.58332H32.3436V9.83332H33.1978V9.58332ZM40.1667 22.0442V22.8984H40.4167V22.0442H40.1667ZM41.1458 21.315H42V21.065H41.1458V21.315ZM33.927 22.0442V22.8984H34.177V22.0442H33.927ZM33.1978 21.065H32.3436V21.315H33.1978V21.065ZM28.1175 40.1721H21.8825V40.4221H28.1175V40.1721ZM22.0075 40.2971V28.8198H21.7575V40.2971H22.0075ZM21.8825 28.9448H28.1175V28.6948H21.8825V28.9448ZM27.9925 28.8198V40.2971H28.2425V28.8198H27.9925ZM22.2239 40.0821H27.7761V39.8321H22.2239V40.0821ZM27.9011 39.9571V29.1599H27.6511V39.9571H27.9011ZM27.7761 29.0349H22.2239V29.2849H27.7761V29.0349ZM22.0989 29.1599V39.9571H22.3489V29.1599H22.0989ZM28.2449 27.9558V27.1017H27.9949V27.9558H28.2449ZM28.974 28.935H29.8282V28.685H28.974V28.935ZM22.0053 27.9558V27.1017H21.7553V27.9558H22.0053ZM21.0262 28.685H20.172V28.935H21.0262V28.685ZM27.9949 41.1458V42H28.2449V41.1458H27.9949ZM28.974 40.4167H29.8282V40.1667H28.974V40.4167ZM21.7553 41.1458V42H22.0053V41.1458H21.7553ZM21.0262 40.1667H20.172V40.4167H21.0262V40.1667ZM28.2449 8.85416V8H27.9949V8.85416H28.2449ZM28.974 9.83332H29.8282V9.58332H28.974V9.83332ZM27.9949 22.0442V22.8984H28.2449V22.0442H27.9949ZM28.974 21.315H29.8282V21.065H28.974V21.315ZM15.9457 40.1721H9.71045V40.4221H15.9457V40.1721ZM9.83545 40.2971V28.8198H9.58545V40.2971H9.83545ZM9.71045 28.9448H15.9457V28.6948H9.71045V28.9448ZM15.8207 28.8198V40.2971H16.0707V28.8198H15.8207ZM15.7291 39.9571V29.1599H15.4791V39.9571H15.7291ZM15.6041 29.0349H10.0518V29.2849H15.6041V29.0349ZM9.92681 29.1599V39.9571H10.1768V29.1599H9.92681ZM16.0731 27.9558V27.1017H15.8231V27.9558H16.0731ZM16.8022 28.935H17.6564V28.685H16.8022V28.935ZM9.83332 27.9558V27.1017H9.58332V27.9558H9.83332ZM8.85416 28.685H8V28.935H8.85416V28.685ZM15.8231 41.1458V42H16.0731V41.1458H15.8231ZM16.8022 40.4167H17.6564V40.1667H16.8022V40.4167ZM9.58332 41.1458V42H9.83332V41.1458H9.58332ZM8.85416 40.1667H8V40.4167H8.85416V40.1667ZM28.1186 21.0705H9.71178V21.3205H28.1186V21.0705ZM9.83678 21.1955V9.71816H9.58678V21.1955H9.83678ZM9.71178 9.84316H28.1186V9.59316H9.71178V9.84316ZM27.9936 9.71816V21.1955H28.2436V9.71816H27.9936ZM9.92859 10.0582V20.8554H10.1786V10.0582H9.92859ZM10.0536 20.9804H27.7768V20.7304H10.0536V20.9804ZM27.9018 20.8554V10.0582H27.6518V20.8554H27.9018ZM27.7768 9.93324H10.0536V10.1832H27.7768V9.93324ZM10.1786 10.0582V10.0582H9.92859V10.0582H10.1786ZM9.83332 8.85416V8H9.58332V8.85416H9.83332ZM8.85416 9.58332H8V9.83332H8.85416V9.58332ZM9.58332 22.0442V22.8984H9.83332V22.0442H9.58332ZM8.85416 21.065H8V21.315H8.85416V21.065ZM10.0518 40.0821H15.6041V39.8321H10.0518V40.0821Z" fill="#00B6E3"/>
</svg>
