<svg width="50" height="50" viewBox="0 0 50 50" fill="none" xmlns="http://www.w3.org/2000/svg">
<path fill-rule="evenodd" clip-rule="evenodd" d="M40.5 12.5V42.75H9V7H40.5V12.5ZM39.75 13.25H9.75V42H39.75V13.25ZM37.25 40H12.25V27.75H37.25V40ZM36.5 28.5H13V39.25H36.5V28.5ZM17.25 25.75H12.25V20.75H17.25V25.75ZM37.25 25.75H32.25V20.75H37.25V25.75ZM27.25 25.75H22.25V20.75H27.25V25.75ZM16.5 21.5H13V25H16.5V21.5ZM36.5 21.5H33V25H36.5V21.5ZM23 21.5V25H26.5V21.5C25.3325 21.5 24.1675 21.5 23 21.5ZM37.25 18.75H12.25V18H37.25V18.75ZM37.25 16H12.25V15.25H37.25V16ZM39.75 12.5V7.75C29.75 7.75 19.75 7.75 9.75 7.75V12.5H39.75ZM17 10.5H12.25V9.75H17V10.5Z" fill="#00B6E3"/>
</svg>
